<svg xmlns="http://www.w3.org/2000/svg" xmlns:xlink="http://www.w3.org/1999/xlink" width="500" zoomAndPan="magnify" viewBox="0 0 375 374.999991" height="500" preserveAspectRatio="xMidYMid meet" version="1.0"><defs><g/><clipPath id="01e2b527d7"><path d="M 175 115.191406 L 185 115.191406 L 185 144 L 175 144 Z M 175 115.191406 " clip-rule="nonzero"/></clipPath><clipPath id="44d45c4605"><path d="M 174 115.191406 L 178 115.191406 L 178 118 L 174 118 Z M 174 115.191406 " clip-rule="nonzero"/></clipPath><clipPath id="7beea9f796"><path d="M 158 195 L 168 195 L 168 212.691406 L 158 212.691406 Z M 158 195 " clip-rule="nonzero"/></clipPath><clipPath id="376aa52dd0"><path d="M 206 195 L 215 195 L 215 212.691406 L 206 212.691406 Z M 206 195 " clip-rule="nonzero"/></clipPath><clipPath id="c3bbd28f8a"><path d="M 149 143 L 225.980469 143 L 225.980469 199 L 149 199 Z M 149 143 " clip-rule="nonzero"/></clipPath></defs><g clip-path="url(#01e2b527d7)"><path fill="#959394" d="M 183.410156 143.167969 L 175.957031 115.703125 L 184.859375 142.734375 Z M 183.410156 143.167969 " fill-opacity="1" fill-rule="nonzero"/></g><g clip-path="url(#44d45c4605)"><path fill="#bfbebe" d="M 176.785156 115.78125 C 177.246094 116.238281 177.246094 116.980469 176.785156 117.4375 C 176.328125 117.894531 175.585938 117.894531 175.128906 117.4375 C 174.671875 116.980469 174.671875 116.238281 175.128906 115.78125 C 175.585938 115.320312 176.328125 115.320312 176.785156 115.78125 " fill-opacity="1" fill-rule="nonzero"/></g><path fill="#959394" d="M 189.394531 142.503906 L 203.542969 117.8125 L 190.726562 143.222656 Z M 189.394531 142.503906 " fill-opacity="1" fill-rule="nonzero"/><path fill="#bfbebe" d="M 196.210938 147.046875 C 196.210938 151.273438 192.070312 154.695312 186.964844 154.695312 C 181.863281 154.695312 177.722656 151.273438 177.722656 147.046875 C 177.722656 142.820312 181.863281 139.398438 186.964844 139.398438 C 192.070312 139.398438 196.210938 142.820312 196.210938 147.046875 " fill-opacity="1" fill-rule="nonzero"/><g clip-path="url(#7beea9f796)"><path fill="#bfbebe" d="M 160.0625 212.585938 L 158.128906 212.015625 L 161.011719 195.132812 L 167.722656 197.378906 L 160.0625 212.585938 " fill-opacity="1" fill-rule="nonzero"/></g><g clip-path="url(#376aa52dd0)"><path fill="#bfbebe" d="M 212.144531 212.589844 L 214.125 212.214844 L 212.941406 195.128906 L 206.039062 196.695312 L 212.144531 212.589844 " fill-opacity="1" fill-rule="nonzero"/></g><path fill="#d3d2d2" d="M 217.667969 197.992188 C 217.667969 197.992188 207.449219 200.335938 186.964844 200.335938 C 166.480469 200.335938 156.261719 197.992188 156.261719 197.992188 L 156.261719 194.621094 L 217.667969 194.621094 L 217.667969 197.992188 " fill-opacity="1" fill-rule="nonzero"/><g clip-path="url(#c3bbd28f8a)"><path fill="#c13331" d="M 222.148438 193.105469 C 221.699219 194.769531 219.859375 196.355469 218.121094 196.617188 C 197.609375 199.605469 177.101562 199.605469 156.589844 196.617188 C 154.847656 196.355469 153.011719 194.769531 152.5625 193.105469 C 148.726562 178.589844 148.726562 164.074219 152.5625 149.5625 C 153.011719 147.898438 154.847656 146.3125 156.589844 146.050781 C 177.101562 143.058594 197.609375 143.058594 218.121094 146.050781 C 219.859375 146.308594 221.699219 147.898438 222.148438 149.5625 C 225.984375 164.074219 225.984375 178.589844 222.148438 193.105469 " fill-opacity="1" fill-rule="nonzero"/></g><path fill="#cd473e" d="M 150.457031 168.945312 C 150.636719 162.785156 151.546875 156.628906 153.191406 150.46875 C 153.625 148.882812 155.394531 147.371094 157.070312 147.121094 C 166.941406 145.699219 176.8125 144.984375 186.679688 144.984375 C 196.550781 144.984375 206.421875 145.699219 216.289062 147.121094 C 217.742188 147.335938 219.261719 148.5 219.925781 149.839844 C 219.203125 149.1875 218.300781 148.710938 217.421875 148.578125 C 207.554688 147.15625 197.683594 146.441406 187.8125 146.441406 C 177.945312 146.441406 168.074219 147.15625 158.203125 148.578125 C 156.523438 148.828125 154.734375 150.335938 154.324219 151.929688 C 152.679688 158.308594 151.605469 164.347656 150.457031 168.945312 " fill-opacity="1" fill-rule="nonzero"/><path fill="#8b2421" d="M 206.9375 189.753906 C 206.605469 191.160156 205.253906 192.503906 203.972656 192.722656 C 188.890625 195.25 173.804688 195.25 158.71875 192.722656 C 157.4375 192.503906 156.085938 191.160156 155.757812 189.753906 C 152.933594 177.472656 152.933594 165.195312 155.757812 152.917969 C 156.085938 151.507812 157.4375 150.164062 158.71875 149.945312 C 173.804688 147.417969 188.890625 147.417969 203.972656 149.945312 C 205.253906 150.164062 206.605469 151.507812 206.9375 152.917969 C 209.757812 165.195312 209.757812 177.472656 206.9375 189.753906 " fill-opacity="1" fill-rule="nonzero"/><path fill="#2f939f" d="M 205.460938 188.6875 C 205.148438 190.015625 203.875 191.28125 202.667969 191.488281 C 188.453125 193.871094 174.238281 193.871094 160.027344 191.488281 C 158.816406 191.28125 157.546875 190.015625 157.234375 188.6875 C 154.574219 177.121094 154.574219 165.550781 157.234375 153.980469 C 157.546875 152.652344 158.816406 151.386719 160.027344 151.179688 C 174.238281 148.796875 188.453125 148.796875 202.667969 151.179688 C 203.875 151.386719 205.148438 152.652344 205.460938 153.980469 C 208.117188 165.550781 208.117188 177.121094 205.460938 188.6875 " fill-opacity="1" fill-rule="nonzero"/><path fill="#42a3ab" d="M 204.320312 187.867188 C 204.023438 189.132812 202.8125 190.339844 201.660156 190.535156 C 188.117188 192.808594 174.574219 192.808594 161.03125 190.535156 C 159.878906 190.339844 158.667969 189.132812 158.371094 187.867188 C 155.839844 176.847656 155.839844 165.824219 158.371094 154.796875 C 158.667969 153.535156 159.878906 152.328125 161.03125 152.128906 C 174.574219 149.863281 188.117188 149.863281 201.660156 152.128906 C 202.8125 152.328125 204.023438 153.535156 204.320312 154.796875 C 206.855469 165.824219 206.855469 176.847656 204.320312 187.867188 " fill-opacity="1" fill-rule="nonzero"/><path fill="#409ca8" d="M 180.390625 192.234375 C 173.9375 192.183594 167.484375 191.617188 161.03125 190.535156 C 159.878906 190.339844 158.667969 189.132812 158.371094 187.867188 C 157.105469 182.359375 156.472656 176.847656 156.472656 171.332031 C 156.472656 176.847656 157.105469 182.359375 158.371094 187.867188 C 158.667969 189.132812 159.878906 190.339844 161.03125 190.535156 C 167.484375 191.617188 173.9375 192.183594 180.390625 192.234375 M 158.371094 154.796875 C 158.371094 154.796875 158.371094 154.796875 158.371094 154.792969 C 158.371094 154.796875 158.371094 154.796875 158.371094 154.796875 " fill-opacity="1" fill-rule="nonzero"/><path fill="#54acb4" d="M 181.34375 192.238281 C 181.027344 192.238281 180.707031 192.238281 180.390625 192.234375 C 173.9375 192.183594 167.484375 191.617188 161.03125 190.535156 C 159.878906 190.339844 158.667969 189.132812 158.371094 187.867188 C 157.105469 182.359375 156.472656 176.847656 156.472656 171.332031 C 156.472656 165.824219 157.105469 160.308594 158.371094 154.796875 C 158.371094 154.796875 158.371094 154.796875 158.371094 154.792969 C 158.378906 154.761719 158.390625 154.730469 158.398438 154.695312 C 163.5 155.539062 168.265625 158.296875 172.480469 161.15625 C 177.785156 164.753906 182.800781 168.933594 186.925781 173.851562 C 190.988281 178.691406 193.925781 184.375 196.207031 190.238281 C 196.339844 190.585938 196.476562 190.929688 196.613281 191.277344 C 191.523438 191.917969 186.433594 192.238281 181.34375 192.238281 " fill-opacity="1" fill-rule="nonzero"/><path fill="#7e201d" d="M 220.652344 182.175781 L 212.582031 182.175781 C 212.210938 182.175781 211.910156 181.878906 211.910156 181.503906 C 211.910156 181.136719 212.210938 180.832031 212.582031 180.832031 L 220.652344 180.832031 C 221.023438 180.832031 221.324219 181.136719 221.324219 181.503906 C 221.324219 181.878906 221.023438 182.175781 220.652344 182.175781 " fill-opacity="1" fill-rule="nonzero"/><path fill="#7e201d" d="M 220.074219 185.707031 L 213.160156 185.707031 C 212.839844 185.707031 212.582031 185.40625 212.582031 185.035156 C 212.582031 184.664062 212.839844 184.363281 213.160156 184.363281 L 220.074219 184.363281 C 220.394531 184.363281 220.652344 184.664062 220.652344 185.035156 C 220.652344 185.40625 220.394531 185.707031 220.074219 185.707031 " fill-opacity="1" fill-rule="nonzero"/><path fill="#7e201d" d="M 220.652344 178.648438 L 212.582031 178.648438 C 212.210938 178.648438 211.910156 178.34375 211.910156 177.976562 C 211.910156 177.601562 212.210938 177.300781 212.582031 177.300781 L 220.652344 177.300781 C 221.023438 177.300781 221.324219 177.601562 221.324219 177.976562 C 221.324219 178.34375 221.023438 178.648438 220.652344 178.648438 " fill-opacity="1" fill-rule="nonzero"/><path fill="#7e201d" d="M 220.652344 175.117188 L 212.582031 175.117188 C 212.210938 175.117188 211.910156 174.816406 211.910156 174.445312 C 211.910156 174.070312 212.210938 173.773438 212.582031 173.773438 L 220.652344 173.773438 C 221.023438 173.773438 221.324219 174.070312 221.324219 174.445312 C 221.324219 174.816406 221.023438 175.117188 220.652344 175.117188 " fill-opacity="1" fill-rule="nonzero"/><path fill="#a7a5a6" d="M 221.492188 164.019531 C 221.492188 166.714844 219.308594 168.898438 216.617188 168.898438 C 213.925781 168.898438 211.742188 166.714844 211.742188 164.019531 C 211.742188 161.328125 213.925781 159.144531 216.617188 159.144531 C 219.308594 159.144531 221.492188 161.328125 221.492188 164.019531 " fill-opacity="1" fill-rule="nonzero"/><path fill="#868484" d="M 219.964844 164.019531 C 219.964844 165.867188 218.464844 167.367188 216.617188 167.367188 C 214.769531 167.367188 213.273438 165.867188 213.273438 164.019531 C 213.273438 162.171875 214.769531 160.675781 216.617188 160.675781 C 218.464844 160.675781 219.964844 162.171875 219.964844 164.019531 " fill-opacity="1" fill-rule="nonzero"/><path fill="#727070" d="M 217.667969 164.691406 C 217.667969 165.269531 217.199219 165.742188 216.617188 165.742188 C 216.039062 165.742188 215.566406 165.269531 215.566406 164.691406 L 215.566406 160.195312 C 215.566406 159.617188 216.039062 159.144531 216.617188 159.144531 C 217.199219 159.144531 217.667969 159.617188 217.667969 160.195312 L 217.667969 164.691406 " fill-opacity="1" fill-rule="nonzero"/><path fill="#bfbebe" d="M 204.074219 118.457031 C 204.074219 119.101562 203.550781 119.628906 202.902344 119.628906 C 202.257812 119.628906 201.730469 119.101562 201.730469 118.457031 C 201.730469 117.808594 202.257812 117.28125 202.902344 117.28125 C 203.550781 117.28125 204.074219 117.808594 204.074219 118.457031 " fill-opacity="1" fill-rule="nonzero"/><g fill="#25366c" fill-opacity="1"><g transform="translate(89.101098, 243.740492)"><g><path d="M 12.597656 -13.207031 C 12.503906 -13.9375 12.324219 -14.667969 12.078125 -15.367188 C 11.5625 -16.734375 10.742188 -18.011719 9.644531 -19.046875 C 9.097656 -19.566406 8.457031 -20.019531 7.789062 -20.355469 C 7.121094 -20.722656 6.390625 -20.964844 5.628906 -21.117188 C 4.136719 -21.453125 2.648438 -21.328125 1.246094 -20.996094 L 1.277344 -20.902344 L 1.21875 -20.875 L 1.613281 -1.824219 L 1.582031 0.121094 C 2.527344 0.121094 3.46875 0 4.382812 -0.273438 L 4.5625 -0.273438 L 4.5625 -0.304688 C 5.019531 -0.457031 5.445312 -0.609375 5.871094 -0.792969 C 7.210938 -1.371094 8.398438 -2.25 9.402344 -3.316406 C 10.375 -4.351562 11.136719 -5.597656 11.683594 -6.90625 C 12.230469 -8.246094 12.535156 -9.644531 12.628906 -11.046875 C 12.65625 -11.378906 12.65625 -11.746094 12.65625 -12.078125 C 12.65625 -12.445312 12.65625 -12.839844 12.597656 -13.207031 Z M 9.707031 -11.226562 C 9.644531 -10.132812 9.402344 -9.035156 8.976562 -8.03125 C 8.582031 -7 8.003906 -6.085938 7.242188 -5.292969 C 6.511719 -4.503906 5.660156 -3.894531 4.6875 -3.46875 C 4.625 -3.4375 4.5625 -3.40625 4.503906 -3.378906 L 4.167969 -18.378906 C 4.472656 -18.347656 4.777344 -18.316406 5.050781 -18.257812 C 6.023438 -18.074219 6.90625 -17.585938 7.667969 -16.917969 C 8.398438 -16.21875 8.976562 -15.335938 9.3125 -14.363281 C 9.492188 -13.84375 9.644531 -13.359375 9.707031 -12.839844 C 9.738281 -12.597656 9.738281 -12.324219 9.738281 -12.078125 C 9.738281 -11.804688 9.738281 -11.53125 9.707031 -11.226562 Z M 9.707031 -11.226562 "/></g></g></g><g fill="#25366c" fill-opacity="1"><g transform="translate(103.003861, 243.740492)"><g><path d="M 3.285156 -18.835938 L 1.21875 -18.742188 C 1.246094 -17.464844 1.277344 -16.125 1.21875 -14.847656 L 3.316406 -14.789062 C 3.347656 -15.457031 3.347656 -16.125 3.347656 -16.796875 C 3.316406 -17.464844 3.316406 -18.136719 3.285156 -18.835938 Z M 3.285156 -18.835938 "/></g></g></g><g fill="#25366c" fill-opacity="1"><g transform="translate(108.72316, 243.740492)"><g><path d="M 15.304688 -14.695312 C 15.246094 -14.96875 15.152344 -15.214844 15.0625 -15.488281 L 14.757812 -16.277344 C 14.636719 -16.523438 14.515625 -16.796875 14.390625 -17.039062 C 14.238281 -17.3125 14.089844 -17.558594 13.9375 -17.832031 C 13.601562 -18.316406 13.175781 -18.804688 12.71875 -19.230469 C 12.230469 -19.65625 11.652344 -20.019531 11.046875 -20.296875 C 10.863281 -20.355469 10.710938 -20.417969 10.558594 -20.476562 C 10.375 -20.507812 10.222656 -20.570312 10.042969 -20.597656 C 9.738281 -20.660156 9.433594 -20.691406 9.160156 -20.722656 C 8.550781 -20.78125 7.941406 -20.75 7.332031 -20.660156 C 6.722656 -20.597656 6.117188 -20.449219 5.507812 -20.171875 C 4.898438 -19.898438 4.289062 -19.503906 3.804688 -18.957031 L 5.964844 -17.007812 C 6.144531 -17.191406 6.390625 -17.34375 6.695312 -17.496094 C 7 -17.617188 7.332031 -17.738281 7.730469 -17.769531 C 8.125 -17.832031 8.519531 -17.832031 8.914062 -17.800781 C 9.097656 -17.800781 9.28125 -17.769531 9.464844 -17.738281 C 9.554688 -17.707031 9.613281 -17.679688 9.707031 -17.679688 C 9.765625 -17.648438 9.859375 -17.617188 9.917969 -17.585938 C 10.222656 -17.464844 10.496094 -17.28125 10.769531 -17.070312 C 11.015625 -16.828125 11.257812 -16.523438 11.5 -16.1875 C 11.59375 -16.035156 11.714844 -15.851562 11.804688 -15.699219 C 11.898438 -15.519531 11.988281 -15.335938 12.050781 -15.121094 L 12.203125 -14.816406 L 12.292969 -14.515625 C 12.382812 -14.300781 12.445312 -14.089844 12.503906 -13.875 C 12.992188 -12.171875 13.082031 -10.34375 12.75 -8.609375 C 12.597656 -7.757812 12.355469 -6.90625 11.988281 -6.117188 C 11.625 -5.324219 11.167969 -4.59375 10.621094 -4.046875 C 10.070312 -3.5 9.464844 -3.132812 8.824219 -3.011719 C 8.183594 -2.890625 7.453125 -3.011719 6.816406 -3.316406 C 6.480469 -3.46875 6.144531 -3.683594 5.871094 -3.925781 C 5.597656 -4.167969 5.324219 -4.441406 5.113281 -4.777344 C 4.65625 -5.417969 4.289062 -6.175781 4.078125 -7 C 3.621094 -8.671875 3.652344 -10.496094 3.957031 -12.292969 C 4.109375 -13.207031 4.351562 -14.089844 4.65625 -14.878906 C 4.988281 -15.671875 5.417969 -16.402344 5.964844 -17.007812 L 3.804688 -18.957031 C 2.980469 -18.074219 2.402344 -17.039062 1.976562 -16.003906 C 1.519531 -14.941406 1.277344 -13.84375 1.09375 -12.808594 C 0.914062 -11.746094 0.792969 -10.648438 0.820312 -9.554688 C 0.820312 -8.457031 0.972656 -7.332031 1.246094 -6.238281 C 1.550781 -5.140625 2.039062 -4.046875 2.738281 -3.074219 C 3.074219 -2.585938 3.5 -2.097656 3.957031 -1.703125 C 4.441406 -1.308594 4.960938 -0.941406 5.539062 -0.667969 C 6.117188 -0.394531 6.722656 -0.214844 7.394531 -0.121094 C 8.03125 0 8.703125 -0.03125 9.371094 -0.152344 C 10.042969 -0.273438 10.648438 -0.515625 11.226562 -0.851562 C 11.777344 -1.15625 12.261719 -1.582031 12.6875 -2.007812 C 13.539062 -2.859375 14.179688 -3.863281 14.636719 -4.898438 C 15.09375 -5.933594 15.425781 -7 15.640625 -8.09375 C 16.035156 -10.285156 15.945312 -12.535156 15.304688 -14.695312 Z M 15.304688 -14.695312 "/></g></g></g><g fill="#25366c" fill-opacity="1"><g transform="translate(125.485571, 243.740492)"><g><path d="M 13.328125 -21.148438 L 10.40625 -21.054688 C 10.527344 -17.496094 10.621094 -13.996094 10.285156 -10.558594 C 10.222656 -9.707031 10.101562 -8.824219 9.980469 -8.003906 C 9.859375 -7.179688 9.675781 -6.390625 9.433594 -5.660156 C 9.3125 -5.324219 9.160156 -4.988281 9.007812 -4.6875 C 8.824219 -4.382812 8.640625 -4.109375 8.429688 -3.894531 C 8.308594 -3.773438 8.214844 -3.652344 8.09375 -3.558594 C 7.972656 -3.46875 7.851562 -3.378906 7.730469 -3.316406 C 7.484375 -3.164062 7.242188 -3.105469 7.058594 -3.074219 C 6.96875 -3.074219 6.875 -3.074219 6.785156 -3.074219 C 6.695312 -3.105469 6.601562 -3.132812 6.511719 -3.164062 C 6.296875 -3.253906 6.085938 -3.40625 5.871094 -3.621094 C 5.476562 -4.078125 5.113281 -4.714844 4.839844 -5.386719 C 4.714844 -5.75 4.625 -6.117188 4.535156 -6.480469 C 4.503906 -6.664062 4.472656 -6.847656 4.441406 -7.027344 L 4.410156 -7.300781 L 4.382812 -7.636719 C 4.289062 -8.488281 4.230469 -9.339844 4.199219 -10.222656 C 4.046875 -13.691406 4.167969 -17.222656 4.351562 -20.75 L 1.429688 -20.902344 C 1.246094 -17.34375 1.125 -13.722656 1.277344 -10.070312 C 1.308594 -9.1875 1.371094 -8.277344 1.460938 -7.363281 L 1.492188 -7 L 1.550781 -6.632812 C 1.582031 -6.390625 1.613281 -6.117188 1.671875 -5.871094 C 1.796875 -5.355469 1.917969 -4.867188 2.097656 -4.382812 C 2.464844 -3.40625 2.980469 -2.464844 3.773438 -1.613281 C 4.199219 -1.1875 4.6875 -0.792969 5.324219 -0.488281 C 5.933594 -0.214844 6.664062 -0.0898438 7.363281 -0.152344 C 8.0625 -0.242188 8.671875 -0.488281 9.1875 -0.792969 C 9.464844 -0.941406 9.707031 -1.125 9.917969 -1.308594 C 10.164062 -1.460938 10.34375 -1.671875 10.558594 -1.886719 C 10.953125 -2.3125 11.289062 -2.769531 11.5625 -3.253906 C 11.804688 -3.742188 12.019531 -4.230469 12.203125 -4.6875 C 12.535156 -5.660156 12.71875 -6.632812 12.871094 -7.546875 C 13.023438 -8.488281 13.113281 -9.371094 13.207031 -10.285156 C 13.539062 -13.964844 13.449219 -17.585938 13.328125 -21.148438 Z M 10.222656 -24.859375 L 6.175781 -27.933594 L 4.410156 -25.621094 L 8.457031 -22.515625 Z M 10.222656 -24.859375 "/></g></g></g><g fill="#25366c" fill-opacity="1"><g transform="translate(140.148874, 243.740492)"><g><path d="M 14.332031 -4.5625 C 14.542969 -5.019531 14.726562 -5.476562 14.847656 -5.964844 C 15.183594 -7.027344 15.335938 -8.125 15.394531 -9.21875 C 15.457031 -10.316406 15.394531 -11.378906 15.273438 -12.414062 C 15.214844 -12.960938 15.121094 -13.480469 15.03125 -14.027344 C 14.96875 -14.269531 14.910156 -14.542969 14.847656 -14.816406 L 14.726562 -15.214844 C 14.695312 -15.335938 14.667969 -15.488281 14.605469 -15.609375 C 14.269531 -16.675781 13.785156 -17.738281 12.992188 -18.714844 C 12.628906 -19.167969 12.171875 -19.625 11.652344 -19.992188 C 11.53125 -20.082031 11.378906 -20.171875 11.257812 -20.265625 L 11.046875 -20.386719 C 10.984375 -20.417969 10.894531 -20.449219 10.832031 -20.507812 C 10.527344 -20.660156 10.222656 -20.75 9.980469 -20.84375 C 9.28125 -21.085938 8.550781 -21.148438 7.878906 -21.085938 C 7.179688 -21.027344 6.574219 -20.84375 5.964844 -20.570312 C 5.386719 -20.296875 4.867188 -19.929688 4.382812 -19.472656 C 3.863281 -19.015625 3.53125 -18.53125 3.195312 -18.042969 C 2.585938 -17.039062 2.191406 -16.003906 1.886719 -14.941406 C 1.734375 -14.390625 1.613281 -13.84375 1.519531 -13.296875 C 1.460938 -12.78125 1.398438 -12.261719 1.339844 -11.746094 C 1.246094 -10.679688 1.21875 -9.613281 1.308594 -8.550781 C 1.371094 -7.484375 1.550781 -6.390625 1.886719 -5.292969 L 2.007812 -4.898438 C 2.039062 -4.777344 2.097656 -4.625 2.160156 -4.503906 C 2.25 -4.230469 2.375 -3.984375 2.496094 -3.710938 C 2.527344 -3.589844 2.617188 -3.46875 2.675781 -3.316406 C 2.738281 -3.195312 2.800781 -3.074219 2.890625 -2.953125 C 3.042969 -2.675781 3.226562 -2.402344 3.4375 -2.160156 C 3.832031 -1.671875 4.320312 -1.21875 4.867188 -0.851562 C 5.445312 -0.488281 6.054688 -0.214844 6.695312 -0.0898438 C 8.003906 0.214844 9.371094 0.03125 10.527344 -0.488281 C 11.347656 -0.851562 12.078125 -1.398438 12.71875 -2.039062 C 13.386719 -1.371094 14.058594 -0.699219 14.726562 0 L 16.828125 -2.039062 C 16.003906 -2.890625 15.183594 -3.710938 14.332031 -4.5625 Z M 9.339844 -3.164062 C 8.671875 -2.859375 7.972656 -2.800781 7.332031 -2.953125 C 6.695312 -3.074219 6.144531 -3.4375 5.71875 -3.984375 C 5.597656 -4.109375 5.507812 -4.261719 5.417969 -4.410156 C 5.355469 -4.503906 5.324219 -4.59375 5.265625 -4.6875 C 5.203125 -4.777344 5.171875 -4.867188 5.113281 -4.960938 C 5.050781 -5.140625 4.960938 -5.355469 4.867188 -5.539062 C 4.839844 -5.628906 4.808594 -5.75 4.777344 -5.84375 L 4.6875 -6.144531 C 4.410156 -6.96875 4.289062 -7.851562 4.230469 -8.734375 C 4.167969 -9.644531 4.167969 -10.558594 4.261719 -11.5 C 4.289062 -11.957031 4.351562 -12.414062 4.410156 -12.871094 C 4.472656 -13.296875 4.5625 -13.722656 4.6875 -14.148438 C 4.929688 -14.96875 5.265625 -15.792969 5.691406 -16.492188 C 5.902344 -16.828125 6.117188 -17.128906 6.359375 -17.34375 C 6.601562 -17.558594 6.90625 -17.769531 7.210938 -17.921875 C 7.515625 -18.042969 7.851562 -18.136719 8.15625 -18.195312 C 8.488281 -18.226562 8.761719 -18.164062 8.976562 -18.105469 C 9.1875 -18.011719 9.371094 -17.953125 9.523438 -17.890625 C 9.554688 -17.859375 9.585938 -17.859375 9.613281 -17.832031 L 9.738281 -17.769531 L 9.949219 -17.617188 C 10.222656 -17.40625 10.496094 -17.160156 10.742188 -16.855469 C 11.199219 -16.277344 11.5625 -15.546875 11.835938 -14.726562 C 11.867188 -14.605469 11.898438 -14.515625 11.925781 -14.390625 L 12.019531 -14.089844 C 12.078125 -13.875 12.109375 -13.660156 12.171875 -13.449219 C 12.261719 -12.992188 12.324219 -12.535156 12.382812 -12.078125 C 12.476562 -11.167969 12.503906 -10.253906 12.476562 -9.371094 C 12.414062 -8.457031 12.292969 -7.578125 12.050781 -6.753906 C 11.59375 -7.179688 11.136719 -7.578125 10.648438 -8.003906 L 8.792969 -5.71875 C 9.28125 -5.324219 9.796875 -4.867188 10.285156 -4.382812 C 10.40625 -4.289062 10.496094 -4.199219 10.621094 -4.109375 C 10.253906 -3.683594 9.796875 -3.378906 9.339844 -3.164062 Z M 9.339844 -3.164062 "/></g></g></g><g fill="#25366c" fill-opacity="1"><g transform="translate(158.280262, 243.740492)"><g><path d="M 13.328125 -21.148438 L 10.40625 -21.054688 C 10.527344 -17.496094 10.621094 -13.996094 10.285156 -10.558594 C 10.222656 -9.707031 10.101562 -8.824219 9.980469 -8.003906 C 9.859375 -7.179688 9.675781 -6.390625 9.433594 -5.691406 C 9.3125 -5.324219 9.160156 -4.988281 9.007812 -4.6875 C 8.824219 -4.382812 8.640625 -4.136719 8.429688 -3.894531 C 8.308594 -3.773438 8.214844 -3.652344 8.09375 -3.589844 C 7.972656 -3.46875 7.851562 -3.40625 7.730469 -3.316406 C 7.484375 -3.164062 7.242188 -3.105469 7.058594 -3.074219 C 6.96875 -3.074219 6.875 -3.074219 6.785156 -3.105469 C 6.695312 -3.105469 6.601562 -3.132812 6.511719 -3.164062 C 6.296875 -3.253906 6.085938 -3.40625 5.871094 -3.621094 C 5.476562 -4.078125 5.113281 -4.714844 4.839844 -5.417969 C 4.714844 -5.75 4.625 -6.117188 4.535156 -6.480469 C 4.503906 -6.664062 4.472656 -6.847656 4.441406 -7.027344 L 4.410156 -7.300781 L 4.382812 -7.636719 C 4.289062 -8.488281 4.230469 -9.371094 4.199219 -10.222656 C 4.046875 -13.691406 4.167969 -17.222656 4.351562 -20.75 L 1.429688 -20.902344 C 1.246094 -17.34375 1.125 -13.722656 1.277344 -10.101562 C 1.308594 -9.1875 1.371094 -8.277344 1.460938 -7.363281 L 1.492188 -7.027344 L 1.550781 -6.632812 C 1.582031 -6.390625 1.613281 -6.117188 1.671875 -5.871094 C 1.796875 -5.386719 1.917969 -4.867188 2.097656 -4.382812 C 2.464844 -3.40625 2.980469 -2.464844 3.773438 -1.613281 C 4.199219 -1.1875 4.6875 -0.792969 5.324219 -0.515625 C 5.933594 -0.214844 6.664062 -0.0898438 7.363281 -0.183594 C 8.0625 -0.242188 8.671875 -0.488281 9.1875 -0.792969 C 9.464844 -0.941406 9.707031 -1.125 9.917969 -1.308594 C 10.164062 -1.492188 10.34375 -1.703125 10.558594 -1.886719 C 10.953125 -2.3125 11.289062 -2.769531 11.5625 -3.253906 C 11.804688 -3.742188 12.019531 -4.230469 12.203125 -4.714844 C 12.535156 -5.691406 12.71875 -6.632812 12.871094 -7.546875 C 13.023438 -8.488281 13.113281 -9.371094 13.207031 -10.316406 C 13.539062 -13.964844 13.449219 -17.585938 13.328125 -21.148438 Z M 13.328125 -21.148438 "/></g></g></g><g fill="#25366c" fill-opacity="1"><g transform="translate(172.943564, 243.740492)"><g><path d="M 3.285156 -18.835938 L 1.21875 -18.742188 C 1.246094 -17.464844 1.277344 -16.125 1.21875 -14.847656 L 3.316406 -14.789062 C 3.347656 -15.457031 3.347656 -16.125 3.347656 -16.796875 C 3.316406 -17.464844 3.316406 -18.136719 3.285156 -18.835938 Z M 3.285156 -18.835938 "/></g></g></g><g fill="#25366c" fill-opacity="1"><g transform="translate(178.662863, 243.740492)"><g><path d="M 13.785156 -6.722656 L 10.863281 -6.542969 C 10.863281 -6.269531 10.863281 -5.964844 10.832031 -5.691406 C 10.769531 -5.417969 10.710938 -5.113281 10.621094 -4.839844 C 10.496094 -4.59375 10.40625 -4.320312 10.253906 -4.078125 C 10.101562 -3.863281 9.917969 -3.652344 9.738281 -3.46875 C 9.585938 -3.285156 9.371094 -3.132812 9.1875 -3.042969 C 9.007812 -2.953125 8.792969 -2.890625 8.550781 -2.859375 C 8.125 -2.800781 7.636719 -2.890625 7.152344 -3.132812 C 6.9375 -3.253906 6.695312 -3.40625 6.480469 -3.558594 C 6.269531 -3.742188 6.054688 -3.957031 5.871094 -4.199219 C 5.476562 -4.65625 5.171875 -5.203125 4.898438 -5.8125 C 4.65625 -6.421875 4.472656 -7.058594 4.320312 -7.730469 C 4.261719 -8.0625 4.230469 -8.398438 4.167969 -8.734375 C 4.136719 -9.066406 4.136719 -9.402344 4.136719 -9.765625 C 4.109375 -11.136719 4.320312 -12.535156 4.6875 -13.90625 C 4.867188 -14.605469 5.113281 -15.273438 5.355469 -15.851562 C 5.507812 -16.125 5.660156 -16.402344 5.8125 -16.613281 C 5.964844 -16.855469 6.175781 -17.039062 6.359375 -17.222656 C 6.753906 -17.585938 7.242188 -17.800781 7.699219 -17.859375 C 7.789062 -17.890625 7.910156 -17.890625 8.03125 -17.890625 C 8.0625 -17.890625 8.125 -17.890625 8.183594 -17.890625 L 8.214844 -17.890625 C 8.246094 -17.890625 8.246094 -17.890625 8.246094 -17.890625 C 8.277344 -17.890625 8.277344 -17.890625 8.277344 -17.859375 C 8.398438 -17.859375 8.609375 -17.769531 8.824219 -17.617188 C 9.25 -17.34375 9.675781 -16.886719 9.980469 -16.402344 C 10.132812 -16.15625 10.253906 -15.914062 10.34375 -15.671875 C 10.4375 -15.394531 10.496094 -15.183594 10.496094 -14.941406 L 13.417969 -15.09375 C 13.386719 -15.640625 13.265625 -16.15625 13.113281 -16.613281 C 12.933594 -17.101562 12.71875 -17.558594 12.476562 -17.953125 C 12.203125 -18.347656 11.925781 -18.742188 11.59375 -19.078125 C 11.257812 -19.441406 10.894531 -19.777344 10.46875 -20.050781 C 10.011719 -20.324219 9.523438 -20.597656 8.914062 -20.722656 L 8.671875 -20.78125 L 8.550781 -20.78125 L 8.429688 -20.8125 C 8.308594 -20.8125 8.15625 -20.8125 8.03125 -20.8125 C 7.757812 -20.8125 7.484375 -20.8125 7.210938 -20.75 C 6.144531 -20.597656 5.203125 -20.082031 4.441406 -19.414062 C 4.078125 -19.078125 3.710938 -18.714844 3.4375 -18.316406 C 3.164062 -17.921875 2.921875 -17.496094 2.738281 -17.101562 C 2.527344 -16.675781 2.375 -16.277344 2.25 -15.882812 C 2.097656 -15.488281 1.976562 -15.09375 1.855469 -14.695312 C 1.429688 -13.082031 1.1875 -11.410156 1.21875 -9.707031 C 1.21875 -9.3125 1.246094 -8.886719 1.277344 -8.457031 C 1.308594 -8.003906 1.371094 -7.578125 1.460938 -7.152344 C 1.613281 -6.328125 1.855469 -5.476562 2.222656 -4.65625 C 2.554688 -3.863281 3.011719 -3.074219 3.589844 -2.34375 C 3.894531 -1.976562 4.230469 -1.613281 4.625 -1.308594 C 4.988281 -1.003906 5.417969 -0.730469 5.871094 -0.515625 C 5.996094 -0.425781 6.144531 -0.363281 6.269531 -0.335938 L 6.207031 -0.183594 L 6.023438 0.214844 C 5.933594 0.394531 5.84375 0.609375 5.75 0.820312 C 5.660156 1.035156 5.539062 1.246094 5.417969 1.460938 L 6.480469 3.011719 L 6.664062 2.980469 L 6.816406 2.980469 C 6.9375 2.980469 7.058594 2.980469 7.152344 2.980469 L 7.484375 3.011719 C 7.515625 3.011719 7.578125 3.011719 7.636719 3.042969 L 7.699219 3.042969 C 7.878906 3.074219 8.03125 3.105469 8.214844 3.164062 C 8.367188 3.226562 8.519531 3.253906 8.671875 3.316406 C 8.734375 3.347656 8.792969 3.40625 8.886719 3.4375 L 8.976562 3.46875 C 8.976562 3.5 9.007812 3.5 9.035156 3.53125 C 9.160156 3.621094 9.21875 3.742188 9.21875 3.773438 C 9.21875 3.804688 9.21875 3.804688 9.1875 3.832031 C 9.1875 3.832031 9.160156 3.863281 9.097656 3.894531 C 9.097656 3.925781 9.035156 3.957031 8.914062 3.957031 C 8.824219 3.984375 8.671875 3.984375 8.457031 4.015625 C 8.0625 4.015625 7.667969 4.015625 7.273438 3.984375 C 6.449219 3.984375 5.660156 3.925781 4.839844 3.832031 L 4.625 5.902344 C 5.476562 5.996094 6.328125 6.054688 7.210938 6.085938 C 7.636719 6.085938 8.0625 6.085938 8.519531 6.085938 C 8.734375 6.085938 9.007812 6.085938 9.3125 6.023438 C 9.585938 5.964844 9.949219 5.871094 10.285156 5.628906 C 10.4375 5.539062 10.558594 5.417969 10.710938 5.292969 C 10.769531 5.203125 10.832031 5.140625 10.863281 5.050781 L 10.953125 4.929688 L 11.046875 4.808594 C 11.226562 4.472656 11.320312 4.046875 11.289062 3.652344 C 11.257812 3.253906 11.136719 2.890625 10.953125 2.585938 C 10.769531 2.25 10.496094 2.007812 10.222656 1.824219 C 10.164062 1.765625 10.101562 1.734375 10.042969 1.671875 L 9.859375 1.582031 C 9.738281 1.519531 9.613281 1.460938 9.492188 1.398438 C 9.25 1.308594 9.007812 1.21875 8.792969 1.15625 C 8.550781 1.09375 8.308594 1.035156 8.0625 1.003906 L 7.972656 0.972656 L 8.09375 0.699219 L 8.246094 0.425781 C 8.308594 0.304688 8.335938 0.183594 8.398438 0.0898438 C 8.582031 0.0898438 8.761719 0.0625 8.945312 0.0625 C 9.464844 -0.03125 10.011719 -0.183594 10.496094 -0.425781 C 11.015625 -0.699219 11.441406 -1.003906 11.804688 -1.371094 C 12.171875 -1.734375 12.476562 -2.128906 12.71875 -2.554688 C 12.992188 -2.980469 13.207031 -3.40625 13.359375 -3.863281 C 13.539062 -4.320312 13.632812 -4.777344 13.722656 -5.265625 C 13.785156 -5.75 13.785156 -6.238281 13.785156 -6.722656 Z M 13.785156 -6.722656 "/></g></g></g><g fill="#25366c" fill-opacity="1"><g transform="translate(193.691232, 243.740492)"><g><path d="M 13.996094 0.425781 L 9.917969 -21.9375 L 7.089844 -22.121094 L 0.761719 -1.734375 L 3.53125 -0.851562 L 5.113281 -5.964844 C 5.933594 -5.933594 6.753906 -5.933594 7.546875 -5.933594 C 8.335938 -5.964844 9.128906 -5.964844 9.859375 -5.933594 L 11.105469 0.941406 Z M 7.484375 -8.855469 C 7 -8.855469 6.511719 -8.855469 6.023438 -8.855469 L 8.09375 -15.578125 L 9.3125 -8.886719 C 8.703125 -8.886719 8.09375 -8.886719 7.484375 -8.855469 Z M 7.484375 -8.855469 "/></g></g></g><g fill="#25366c" fill-opacity="1"><g transform="translate(208.50665, 243.740492)"><g><path d="M 12.324219 -21.605469 C 11.441406 -18.589844 10.621094 -15.578125 9.765625 -12.597656 C 9.339844 -11.105469 8.914062 -9.613281 8.457031 -8.15625 C 8.214844 -7.425781 8.003906 -6.664062 7.757812 -5.964844 L 7.730469 -5.902344 L 7.242188 -7.605469 C 6.847656 -8.914062 6.480469 -10.191406 6.144531 -11.5 C 5.417969 -14.089844 4.746094 -16.675781 4.109375 -19.292969 L 1.277344 -18.5625 C 1.917969 -15.945312 2.617188 -13.328125 3.316406 -10.710938 C 3.683594 -9.402344 4.046875 -8.09375 4.410156 -6.816406 L 5.050781 -4.65625 L 5.628906 -2.707031 L 6.238281 -0.792969 L 8.976562 -0.730469 L 9.371094 -1.796875 L 9.765625 -2.890625 L 10.164062 -3.957031 L 10.34375 -4.503906 L 10.527344 -5.019531 C 10.769531 -5.78125 11.015625 -6.511719 11.257812 -7.273438 C 11.714844 -8.761719 12.171875 -10.285156 12.597656 -11.804688 C 13.417969 -14.816406 14.238281 -17.800781 15.121094 -20.78125 Z M 12.324219 -21.605469 "/></g></g></g><g fill="#25366c" fill-opacity="1"><g transform="translate(224.295559, 243.740492)"><g><path d="M 6.117188 -17.953125 C 6.753906 -17.953125 7.394531 -17.953125 8.03125 -17.953125 L 8.03125 -20.875 C 5.84375 -20.875 3.558594 -20.964844 1.21875 -20.78125 L 1.429688 -17.890625 C 2.007812 -17.921875 2.617188 -17.953125 3.195312 -17.953125 L 3.011719 -3.195312 C 2.402344 -3.164062 1.796875 -3.132812 1.21875 -3.105469 L 1.429688 -0.183594 C 3.558594 -0.363281 5.75 -0.273438 8.03125 -0.242188 L 8.03125 -3.195312 C 7.332031 -3.195312 6.632812 -3.195312 5.933594 -3.195312 Z M 6.117188 -17.953125 "/></g></g></g><g fill="#25366c" fill-opacity="1"><g transform="translate(233.604629, 243.740492)"><g><path d="M 5.050781 -3.105469 C 4.808594 -3.105469 4.5625 -3.105469 4.320312 -3.105469 L 4.261719 -9.339844 C 4.59375 -9.371094 4.960938 -9.402344 5.324219 -9.433594 C 6.023438 -9.464844 6.722656 -9.492188 7.363281 -9.492188 L 7.394531 -12.414062 C 6.601562 -12.414062 5.871094 -12.382812 5.140625 -12.355469 C 4.839844 -12.324219 4.535156 -12.292969 4.230469 -12.261719 L 4.167969 -18.378906 C 5.566406 -18.410156 6.96875 -18.410156 8.398438 -18.410156 L 8.398438 -21.328125 C 6.542969 -21.359375 4.714844 -21.359375 2.828125 -21.269531 L 1.21875 -21.269531 L 1.429688 -0.0898438 L 4.351562 -0.152344 L 4.351562 -0.183594 C 4.5625 -0.183594 4.808594 -0.183594 5.019531 -0.183594 L 8.582031 -0.152344 L 8.582031 -3.074219 Z M 5.050781 -3.105469 "/></g></g></g><g fill="#25366c" fill-opacity="1"><g transform="translate(243.430869, 243.740492)"><g><path d="M 12.324219 -21.207031 L 9.402344 -21.207031 L 9.433594 -13.359375 C 9.433594 -12.050781 9.433594 -10.742188 9.433594 -9.464844 L 9.402344 -8.734375 L 8.792969 -9.949219 C 8.582031 -10.375 8.367188 -10.769531 8.15625 -11.199219 C 7.972656 -11.59375 7.757812 -12.019531 7.578125 -12.414062 C 7.484375 -12.628906 7.394531 -12.808594 7.300781 -13.023438 L 7.152344 -13.359375 L 7 -13.691406 L 6.695312 -14.300781 C 6.601562 -14.515625 6.480469 -14.726562 6.390625 -14.941406 L 5.75 -16.15625 C 5.324219 -16.980469 4.898438 -17.769531 4.472656 -18.742188 L 1.671875 -18.226562 L 1.582031 -16.429688 L 1.492188 -14.605469 L 1.429688 -12.78125 L 1.371094 -11.777344 C 1.339844 -10.527344 1.308594 -9.3125 1.277344 -8.09375 C 1.21875 -5.628906 1.21875 -3.195312 1.21875 -0.730469 L 4.136719 -0.730469 C 4.136719 -3.164062 4.136719 -5.597656 4.199219 -8.03125 C 4.230469 -9.21875 4.261719 -10.4375 4.289062 -11.652344 L 4.351562 -12.476562 L 4.351562 -12.445312 L 4.472656 -12.171875 L 4.625 -11.835938 C 4.714844 -11.625 4.808594 -11.410156 4.929688 -11.167969 C 5.113281 -10.742188 5.324219 -10.316406 5.539062 -9.890625 C 5.75 -9.464844 5.964844 -9.035156 6.175781 -8.609375 L 6.816406 -7.363281 C 7.667969 -5.691406 8.488281 -4.046875 9.3125 -2.007812 L 12.140625 -2.464844 C 12.171875 -3.074219 12.203125 -3.710938 12.230469 -4.320312 L 12.261719 -5.265625 L 12.292969 -6.238281 C 12.292969 -6.875 12.324219 -7.546875 12.324219 -8.183594 L 12.355469 -9.433594 C 12.355469 -10.742188 12.355469 -12.050781 12.355469 -13.359375 Z M 12.324219 -21.207031 "/></g></g></g><g fill="#25366c" fill-opacity="1"><g transform="translate(257.029412, 243.740492)"><g><path d="M 9.066406 -21.085938 C 6.054688 -21.148438 3.042969 -21.238281 0 -21.269531 L 0 -18.347656 C 0.941406 -18.316406 1.949219 -18.316406 2.921875 -18.285156 L 2.675781 -0.03125 L 5.597656 0 L 5.84375 -18.226562 C 6.875 -18.195312 7.941406 -18.164062 9.007812 -18.164062 Z M 9.066406 -21.085938 "/></g></g></g><g fill="#25366c" fill-opacity="1"><g transform="translate(266.642701, 243.740492)"><g/></g></g><g fill="#25366c" fill-opacity="1"><g transform="translate(272.362, 243.740492)"><g><path d="M 6.328125 -3.316406 C 5.417969 -3.285156 4.6875 -2.527344 4.714844 -1.613281 C 4.746094 -0.667969 5.507812 0.03125 6.421875 0 C 7.363281 0 8.0625 -0.792969 8.03125 -1.703125 C 8.03125 -2.617188 7.242188 -3.347656 6.328125 -3.316406 Z M 11.835938 -18.257812 C 11.714844 -18.589844 11.5625 -18.894531 11.347656 -19.199219 C 11.167969 -19.503906 10.953125 -19.808594 10.679688 -20.050781 C 9.675781 -21.085938 8.308594 -21.632812 6.90625 -21.695312 C 6.207031 -21.726562 5.476562 -21.632812 4.808594 -21.359375 C 4.109375 -21.117188 3.5 -20.722656 3.011719 -20.265625 C 1.976562 -19.292969 1.308594 -17.984375 1.21875 -16.523438 L 4.109375 -16.339844 C 4.167969 -16.980469 4.472656 -17.648438 4.988281 -18.105469 C 5.507812 -18.589844 6.117188 -18.804688 6.785156 -18.773438 C 7.453125 -18.742188 8.15625 -18.46875 8.609375 -18.011719 C 9.035156 -17.558594 9.3125 -16.855469 9.3125 -16.1875 C 9.339844 -15.851562 9.28125 -15.519531 9.160156 -15.214844 C 9.128906 -15.121094 9.097656 -15.0625 9.066406 -15 L 9.035156 -14.96875 L 9.007812 -14.910156 C 8.976562 -14.878906 8.976562 -14.847656 8.945312 -14.816406 C 8.824219 -14.667969 8.703125 -14.484375 8.550781 -14.332031 C 8.277344 -13.996094 7.910156 -13.632812 7.546875 -13.265625 C 7.179688 -12.871094 6.785156 -12.503906 6.390625 -11.957031 C 5.996094 -11.441406 5.660156 -10.863281 5.417969 -10.222656 C 5.171875 -9.613281 5.050781 -8.945312 4.988281 -8.367188 C 4.929688 -7.757812 4.898438 -7.210938 4.898438 -6.664062 C 4.867188 -6.117188 4.867188 -5.597656 4.867188 -5.082031 L 7.820312 -5.082031 C 7.820312 -6.117188 7.789062 -7.152344 7.878906 -8.03125 C 8.003906 -8.914062 8.214844 -9.554688 8.703125 -10.191406 C 8.945312 -10.496094 9.28125 -10.832031 9.644531 -11.199219 C 10.011719 -11.59375 10.375 -11.957031 10.769531 -12.414062 C 10.953125 -12.628906 11.167969 -12.871094 11.347656 -13.175781 C 11.410156 -13.234375 11.441406 -13.328125 11.5 -13.386719 L 11.5625 -13.511719 L 11.652344 -13.632812 C 11.746094 -13.8125 11.804688 -13.964844 11.867188 -14.148438 C 12.140625 -14.816406 12.261719 -15.519531 12.261719 -16.21875 C 12.230469 -16.917969 12.109375 -17.617188 11.835938 -18.257812 Z M 11.835938 -18.257812 "/></g></g></g><g fill="#ed1c24" fill-opacity="1"><g transform="translate(111.534607, 262.898157)"><g><path d="M 0.0625 -6.296875 L 3.203125 -6.296875 L 3.203125 -5.765625 L 2.046875 -5.765625 C 2.015625 -5.316406 1.992188 -4.863281 1.984375 -4.40625 C 1.984375 -3.957031 1.984375 -3.539062 1.984375 -3.15625 C 1.984375 -2.914062 1.984375 -2.664062 1.984375 -2.40625 C 1.992188 -2.144531 2 -1.878906 2 -1.609375 C 2.007812 -1.335938 2.019531 -1.066406 2.03125 -0.796875 C 2.039062 -0.523438 2.050781 -0.257812 2.0625 0 L 1.203125 0 C 1.222656 -0.257812 1.238281 -0.523438 1.25 -0.796875 C 1.257812 -1.066406 1.265625 -1.335938 1.265625 -1.609375 C 1.273438 -1.878906 1.28125 -2.144531 1.28125 -2.40625 C 1.289062 -2.664062 1.296875 -2.914062 1.296875 -3.15625 C 1.296875 -3.539062 1.289062 -3.957031 1.28125 -4.40625 C 1.269531 -4.863281 1.253906 -5.316406 1.234375 -5.765625 L 0.0625 -5.765625 Z M 0.0625 -6.296875 "/></g></g></g><g fill="#ed1c24" fill-opacity="1"><g transform="translate(116.061891, 262.898157)"><g><path d="M 4.28125 -3.140625 C 4.28125 -2.578125 4.226562 -2.085938 4.125 -1.671875 C 4.03125 -1.265625 3.890625 -0.925781 3.703125 -0.65625 C 3.523438 -0.394531 3.316406 -0.195312 3.078125 -0.0625 C 2.835938 0.0625 2.578125 0.125 2.296875 0.125 C 2.015625 0.125 1.753906 0.0625 1.515625 -0.0625 C 1.273438 -0.195312 1.066406 -0.394531 0.890625 -0.65625 C 0.710938 -0.925781 0.570312 -1.265625 0.46875 -1.671875 C 0.363281 -2.085938 0.3125 -2.578125 0.3125 -3.140625 C 0.3125 -3.703125 0.363281 -4.1875 0.46875 -4.59375 C 0.570312 -5.007812 0.710938 -5.351562 0.890625 -5.625 C 1.066406 -5.894531 1.273438 -6.09375 1.515625 -6.21875 C 1.753906 -6.351562 2.015625 -6.421875 2.296875 -6.421875 C 2.578125 -6.421875 2.835938 -6.351562 3.078125 -6.21875 C 3.316406 -6.09375 3.523438 -5.894531 3.703125 -5.625 C 3.890625 -5.351562 4.03125 -5.007812 4.125 -4.59375 C 4.226562 -4.1875 4.28125 -3.703125 4.28125 -3.140625 Z M 3.5 -3.140625 C 3.5 -3.617188 3.46875 -4.023438 3.40625 -4.359375 C 3.34375 -4.703125 3.253906 -4.984375 3.140625 -5.203125 C 3.035156 -5.429688 2.910156 -5.597656 2.765625 -5.703125 C 2.617188 -5.804688 2.460938 -5.859375 2.296875 -5.859375 C 2.128906 -5.859375 1.972656 -5.804688 1.828125 -5.703125 C 1.679688 -5.597656 1.550781 -5.429688 1.4375 -5.203125 C 1.332031 -4.984375 1.25 -4.703125 1.1875 -4.359375 C 1.125 -4.023438 1.09375 -3.617188 1.09375 -3.140625 C 1.09375 -2.671875 1.125 -2.265625 1.1875 -1.921875 C 1.25 -1.578125 1.332031 -1.296875 1.4375 -1.078125 C 1.550781 -0.859375 1.679688 -0.695312 1.828125 -0.59375 C 1.972656 -0.488281 2.128906 -0.4375 2.296875 -0.4375 C 2.460938 -0.4375 2.617188 -0.488281 2.765625 -0.59375 C 2.910156 -0.695312 3.035156 -0.859375 3.140625 -1.078125 C 3.253906 -1.296875 3.34375 -1.578125 3.40625 -1.921875 C 3.46875 -2.265625 3.5 -2.671875 3.5 -3.140625 Z M 3.5 -3.140625 "/></g></g></g><g fill="#ed1c24" fill-opacity="1"><g transform="translate(121.904593, 262.898157)"><g><path d="M 1.203125 -3.28125 C 1.203125 -3.0625 1.203125 -2.847656 1.203125 -2.640625 C 1.210938 -2.441406 1.21875 -2.25 1.21875 -2.0625 C 1.226562 -1.882812 1.238281 -1.722656 1.25 -1.578125 C 1.257812 -1.429688 1.269531 -1.304688 1.28125 -1.203125 C 1.320312 -0.929688 1.398438 -0.738281 1.515625 -0.625 C 1.628906 -0.507812 1.773438 -0.453125 1.953125 -0.453125 C 2.054688 -0.453125 2.160156 -0.476562 2.265625 -0.53125 C 2.367188 -0.582031 2.46875 -0.648438 2.5625 -0.734375 C 2.664062 -0.816406 2.765625 -0.910156 2.859375 -1.015625 C 2.953125 -1.128906 3.03125 -1.242188 3.09375 -1.359375 C 3.113281 -1.972656 3.125 -2.585938 3.125 -3.203125 C 3.125 -3.484375 3.125 -3.753906 3.125 -4.015625 C 3.125 -4.273438 3.117188 -4.523438 3.109375 -4.765625 C 3.097656 -5.015625 3.085938 -5.265625 3.078125 -5.515625 C 3.066406 -5.765625 3.054688 -6.023438 3.046875 -6.296875 L 3.890625 -6.296875 C 3.867188 -6.023438 3.851562 -5.765625 3.84375 -5.515625 C 3.832031 -5.265625 3.820312 -5.015625 3.8125 -4.765625 C 3.8125 -4.523438 3.804688 -4.273438 3.796875 -4.015625 C 3.796875 -3.753906 3.796875 -3.484375 3.796875 -3.203125 C 3.796875 -2.921875 3.796875 -2.644531 3.796875 -2.375 C 3.804688 -2.101562 3.8125 -1.835938 3.8125 -1.578125 C 3.820312 -1.316406 3.832031 -1.054688 3.84375 -0.796875 C 3.851562 -0.535156 3.867188 -0.269531 3.890625 0 L 3.03125 0 C 3.039062 -0.113281 3.046875 -0.226562 3.046875 -0.34375 C 3.054688 -0.46875 3.066406 -0.585938 3.078125 -0.703125 C 2.984375 -0.597656 2.882812 -0.492188 2.78125 -0.390625 C 2.6875 -0.296875 2.582031 -0.207031 2.46875 -0.125 C 2.351562 -0.0507812 2.226562 0.00390625 2.09375 0.046875 C 1.957031 0.0859375 1.8125 0.109375 1.65625 0.109375 C 1.289062 0.109375 1.007812 -0.03125 0.8125 -0.3125 C 0.613281 -0.601562 0.515625 -1.035156 0.515625 -1.609375 C 0.515625 -1.753906 0.515625 -1.90625 0.515625 -2.0625 C 0.515625 -2.21875 0.515625 -2.375 0.515625 -2.53125 C 0.523438 -2.6875 0.53125 -2.828125 0.53125 -2.953125 C 0.53125 -3.085938 0.53125 -3.195312 0.53125 -3.28125 C 0.53125 -3.5625 0.523438 -3.828125 0.515625 -4.078125 C 0.515625 -4.328125 0.507812 -4.570312 0.5 -4.8125 C 0.5 -5.050781 0.492188 -5.289062 0.484375 -5.53125 C 0.472656 -5.769531 0.460938 -6.023438 0.453125 -6.296875 L 1.296875 -6.296875 C 1.273438 -6.023438 1.257812 -5.769531 1.25 -5.53125 C 1.238281 -5.289062 1.226562 -5.050781 1.21875 -4.8125 C 1.207031 -4.570312 1.203125 -4.328125 1.203125 -4.078125 C 1.203125 -3.828125 1.203125 -3.5625 1.203125 -3.28125 Z M 1.203125 -3.28125 "/></g></g></g><g fill="#ed1c24" fill-opacity="1"><g transform="translate(127.499793, 262.898157)"><g><path d="M 1.515625 -0.390625 C 1.640625 -0.390625 1.757812 -0.410156 1.875 -0.453125 C 2 -0.492188 2.101562 -0.554688 2.1875 -0.640625 C 2.28125 -0.722656 2.351562 -0.832031 2.40625 -0.96875 C 2.46875 -1.101562 2.5 -1.265625 2.5 -1.453125 C 2.5 -1.617188 2.460938 -1.769531 2.390625 -1.90625 C 2.328125 -2.050781 2.242188 -2.1875 2.140625 -2.3125 C 2.035156 -2.445312 1.910156 -2.570312 1.765625 -2.6875 C 1.628906 -2.8125 1.488281 -2.929688 1.34375 -3.046875 C 1.207031 -3.171875 1.066406 -3.296875 0.921875 -3.421875 C 0.785156 -3.554688 0.664062 -3.695312 0.5625 -3.84375 C 0.457031 -3.988281 0.367188 -4.144531 0.296875 -4.3125 C 0.234375 -4.476562 0.203125 -4.660156 0.203125 -4.859375 C 0.203125 -5.148438 0.253906 -5.394531 0.359375 -5.59375 C 0.472656 -5.789062 0.609375 -5.953125 0.765625 -6.078125 C 0.929688 -6.203125 1.113281 -6.289062 1.3125 -6.34375 C 1.519531 -6.394531 1.71875 -6.421875 1.90625 -6.421875 C 2.101562 -6.421875 2.296875 -6.398438 2.484375 -6.359375 C 2.671875 -6.328125 2.847656 -6.296875 3.015625 -6.265625 L 3.015625 -5.34375 C 2.921875 -5.425781 2.828125 -5.5 2.734375 -5.5625 C 2.648438 -5.632812 2.5625 -5.691406 2.46875 -5.734375 C 2.382812 -5.785156 2.296875 -5.820312 2.203125 -5.84375 C 2.117188 -5.875 2.023438 -5.890625 1.921875 -5.890625 C 1.785156 -5.890625 1.660156 -5.875 1.546875 -5.84375 C 1.429688 -5.8125 1.332031 -5.757812 1.25 -5.6875 C 1.164062 -5.613281 1.097656 -5.519531 1.046875 -5.40625 C 1.003906 -5.289062 0.984375 -5.15625 0.984375 -5 C 0.984375 -4.78125 1.035156 -4.582031 1.140625 -4.40625 C 1.253906 -4.226562 1.394531 -4.054688 1.5625 -3.890625 C 1.738281 -3.734375 1.925781 -3.570312 2.125 -3.40625 C 2.320312 -3.238281 2.503906 -3.0625 2.671875 -2.875 C 2.847656 -2.695312 2.992188 -2.492188 3.109375 -2.265625 C 3.222656 -2.046875 3.28125 -1.796875 3.28125 -1.515625 C 3.28125 -1.296875 3.253906 -1.101562 3.203125 -0.9375 C 3.148438 -0.78125 3.082031 -0.640625 3 -0.515625 C 2.914062 -0.398438 2.816406 -0.300781 2.703125 -0.21875 C 2.597656 -0.132812 2.484375 -0.0664062 2.359375 -0.015625 C 2.234375 0.0351562 2.101562 0.0703125 1.96875 0.09375 C 1.84375 0.113281 1.71875 0.125 1.59375 0.125 C 1.4375 0.125 1.296875 0.117188 1.171875 0.109375 C 1.046875 0.0976562 0.925781 0.0820312 0.8125 0.0625 C 0.707031 0.0390625 0.609375 0.0195312 0.515625 0 C 0.421875 -0.03125 0.332031 -0.0625 0.25 -0.09375 L 0.25 -1.03125 C 0.34375 -0.945312 0.4375 -0.863281 0.53125 -0.78125 C 0.625 -0.707031 0.722656 -0.640625 0.828125 -0.578125 C 0.929688 -0.515625 1.039062 -0.46875 1.15625 -0.4375 C 1.269531 -0.40625 1.390625 -0.390625 1.515625 -0.390625 Z M 1.515625 -0.390625 "/></g></g></g><g fill="#ed1c24" fill-opacity="1"><g transform="translate(132.256245, 262.898157)"><g/></g></g><g fill="#ed1c24" fill-opacity="1"><g transform="translate(135.339765, 262.898157)"><g><path d="M 1.328125 -6.296875 C 1.304688 -6.035156 1.289062 -5.769531 1.28125 -5.5 C 1.269531 -5.226562 1.257812 -4.957031 1.25 -4.6875 C 1.25 -4.414062 1.242188 -4.148438 1.234375 -3.890625 C 1.234375 -3.628906 1.234375 -3.382812 1.234375 -3.15625 C 1.234375 -2.757812 1.234375 -2.332031 1.234375 -1.875 C 1.242188 -1.425781 1.257812 -0.976562 1.28125 -0.53125 L 3.140625 -0.53125 L 3.140625 0 L 0.453125 0 C 0.472656 -0.257812 0.488281 -0.523438 0.5 -0.796875 C 0.507812 -1.066406 0.515625 -1.335938 0.515625 -1.609375 C 0.523438 -1.878906 0.53125 -2.144531 0.53125 -2.40625 C 0.539062 -2.664062 0.546875 -2.914062 0.546875 -3.15625 C 0.546875 -3.382812 0.539062 -3.628906 0.53125 -3.890625 C 0.53125 -4.148438 0.523438 -4.414062 0.515625 -4.6875 C 0.515625 -4.957031 0.507812 -5.226562 0.5 -5.5 C 0.488281 -5.769531 0.472656 -6.035156 0.453125 -6.296875 Z M 1.328125 -6.296875 "/></g></g></g><g fill="#ed1c24" fill-opacity="1"><g transform="translate(139.779959, 262.898157)"><g><path d="M 2.515625 -0.40625 C 2.640625 -0.40625 2.753906 -0.421875 2.859375 -0.453125 C 2.972656 -0.492188 3.078125 -0.539062 3.171875 -0.59375 C 3.265625 -0.644531 3.347656 -0.703125 3.421875 -0.765625 C 3.503906 -0.828125 3.578125 -0.882812 3.640625 -0.9375 L 3.640625 -0.03125 C 3.566406 -0.0195312 3.488281 -0.00390625 3.40625 0.015625 C 3.320312 0.0351562 3.226562 0.0507812 3.125 0.0625 C 3.03125 0.0820312 2.921875 0.0976562 2.796875 0.109375 C 2.679688 0.117188 2.539062 0.125 2.375 0.125 C 2.050781 0.125 1.757812 0.0507812 1.5 -0.09375 C 1.25 -0.25 1.035156 -0.460938 0.859375 -0.734375 C 0.679688 -1.015625 0.546875 -1.351562 0.453125 -1.75 C 0.359375 -2.15625 0.3125 -2.613281 0.3125 -3.125 C 0.3125 -3.613281 0.347656 -4.0625 0.421875 -4.46875 C 0.503906 -4.875 0.625 -5.21875 0.78125 -5.5 C 0.9375 -5.789062 1.128906 -6.015625 1.359375 -6.171875 C 1.585938 -6.335938 1.847656 -6.421875 2.140625 -6.421875 C 2.453125 -6.421875 2.71875 -6.347656 2.9375 -6.203125 C 3.164062 -6.054688 3.347656 -5.847656 3.484375 -5.578125 C 3.628906 -5.304688 3.734375 -4.972656 3.796875 -4.578125 C 3.859375 -4.191406 3.890625 -3.742188 3.890625 -3.234375 L 3.890625 -3.0625 L 1.125 -3.0625 C 1.144531 -2.570312 1.179688 -2.160156 1.234375 -1.828125 C 1.296875 -1.492188 1.382812 -1.21875 1.5 -1 C 1.613281 -0.789062 1.753906 -0.640625 1.921875 -0.546875 C 2.085938 -0.453125 2.285156 -0.40625 2.515625 -0.40625 Z M 3.109375 -3.59375 C 3.097656 -3.769531 3.085938 -3.945312 3.078125 -4.125 C 3.066406 -4.3125 3.046875 -4.488281 3.015625 -4.65625 C 2.992188 -4.832031 2.960938 -4.992188 2.921875 -5.140625 C 2.878906 -5.296875 2.820312 -5.425781 2.75 -5.53125 C 2.675781 -5.644531 2.585938 -5.734375 2.484375 -5.796875 C 2.390625 -5.859375 2.269531 -5.890625 2.125 -5.890625 C 1.945312 -5.890625 1.796875 -5.820312 1.671875 -5.6875 C 1.554688 -5.5625 1.457031 -5.390625 1.375 -5.171875 C 1.300781 -4.953125 1.242188 -4.703125 1.203125 -4.421875 C 1.171875 -4.148438 1.148438 -3.875 1.140625 -3.59375 Z M 3.109375 -3.59375 "/></g></g></g><g fill="#ed1c24" fill-opacity="1"><g transform="translate(145.200994, 262.898157)"><g><path d="M 1.515625 -0.390625 C 1.640625 -0.390625 1.757812 -0.410156 1.875 -0.453125 C 2 -0.492188 2.101562 -0.554688 2.1875 -0.640625 C 2.28125 -0.722656 2.351562 -0.832031 2.40625 -0.96875 C 2.46875 -1.101562 2.5 -1.265625 2.5 -1.453125 C 2.5 -1.617188 2.460938 -1.769531 2.390625 -1.90625 C 2.328125 -2.050781 2.242188 -2.1875 2.140625 -2.3125 C 2.035156 -2.445312 1.910156 -2.570312 1.765625 -2.6875 C 1.628906 -2.8125 1.488281 -2.929688 1.34375 -3.046875 C 1.207031 -3.171875 1.066406 -3.296875 0.921875 -3.421875 C 0.785156 -3.554688 0.664062 -3.695312 0.5625 -3.84375 C 0.457031 -3.988281 0.367188 -4.144531 0.296875 -4.3125 C 0.234375 -4.476562 0.203125 -4.660156 0.203125 -4.859375 C 0.203125 -5.148438 0.253906 -5.394531 0.359375 -5.59375 C 0.472656 -5.789062 0.609375 -5.953125 0.765625 -6.078125 C 0.929688 -6.203125 1.113281 -6.289062 1.3125 -6.34375 C 1.519531 -6.394531 1.71875 -6.421875 1.90625 -6.421875 C 2.101562 -6.421875 2.296875 -6.398438 2.484375 -6.359375 C 2.671875 -6.328125 2.847656 -6.296875 3.015625 -6.265625 L 3.015625 -5.34375 C 2.921875 -5.425781 2.828125 -5.5 2.734375 -5.5625 C 2.648438 -5.632812 2.5625 -5.691406 2.46875 -5.734375 C 2.382812 -5.785156 2.296875 -5.820312 2.203125 -5.84375 C 2.117188 -5.875 2.023438 -5.890625 1.921875 -5.890625 C 1.785156 -5.890625 1.660156 -5.875 1.546875 -5.84375 C 1.429688 -5.8125 1.332031 -5.757812 1.25 -5.6875 C 1.164062 -5.613281 1.097656 -5.519531 1.046875 -5.40625 C 1.003906 -5.289062 0.984375 -5.15625 0.984375 -5 C 0.984375 -4.78125 1.035156 -4.582031 1.140625 -4.40625 C 1.253906 -4.226562 1.394531 -4.054688 1.5625 -3.890625 C 1.738281 -3.734375 1.925781 -3.570312 2.125 -3.40625 C 2.320312 -3.238281 2.503906 -3.0625 2.671875 -2.875 C 2.847656 -2.695312 2.992188 -2.492188 3.109375 -2.265625 C 3.222656 -2.046875 3.28125 -1.796875 3.28125 -1.515625 C 3.28125 -1.296875 3.253906 -1.101562 3.203125 -0.9375 C 3.148438 -0.78125 3.082031 -0.640625 3 -0.515625 C 2.914062 -0.398438 2.816406 -0.300781 2.703125 -0.21875 C 2.597656 -0.132812 2.484375 -0.0664062 2.359375 -0.015625 C 2.234375 0.0351562 2.101562 0.0703125 1.96875 0.09375 C 1.84375 0.113281 1.71875 0.125 1.59375 0.125 C 1.4375 0.125 1.296875 0.117188 1.171875 0.109375 C 1.046875 0.0976562 0.925781 0.0820312 0.8125 0.0625 C 0.707031 0.0390625 0.609375 0.0195312 0.515625 0 C 0.421875 -0.03125 0.332031 -0.0625 0.25 -0.09375 L 0.25 -1.03125 C 0.34375 -0.945312 0.4375 -0.863281 0.53125 -0.78125 C 0.625 -0.707031 0.722656 -0.640625 0.828125 -0.578125 C 0.929688 -0.515625 1.039062 -0.46875 1.15625 -0.4375 C 1.269531 -0.40625 1.390625 -0.390625 1.515625 -0.390625 Z M 1.515625 -0.390625 "/></g></g></g><g fill="#ed1c24" fill-opacity="1"><g transform="translate(149.957444, 262.898157)"><g/></g></g><g fill="#ed1c24" fill-opacity="1"><g transform="translate(153.040963, 262.898157)"><g><path d="M 3.015625 -6.296875 L 3.015625 -5.765625 L 1.296875 -5.765625 C 1.273438 -5.398438 1.257812 -5.035156 1.25 -4.671875 C 1.25 -4.304688 1.242188 -3.957031 1.234375 -3.625 L 2.890625 -3.625 L 2.890625 -3.09375 L 1.234375 -3.09375 C 1.234375 -2.851562 1.234375 -2.601562 1.234375 -2.34375 C 1.242188 -2.09375 1.25 -1.835938 1.25 -1.578125 C 1.257812 -1.316406 1.269531 -1.050781 1.28125 -0.78125 C 1.289062 -0.507812 1.300781 -0.25 1.3125 0 L 0.453125 0 C 0.472656 -0.257812 0.488281 -0.523438 0.5 -0.796875 C 0.507812 -1.066406 0.515625 -1.335938 0.515625 -1.609375 C 0.523438 -1.878906 0.53125 -2.144531 0.53125 -2.40625 C 0.539062 -2.664062 0.546875 -2.914062 0.546875 -3.15625 C 0.546875 -3.382812 0.539062 -3.628906 0.53125 -3.890625 C 0.53125 -4.148438 0.523438 -4.414062 0.515625 -4.6875 C 0.515625 -4.957031 0.507812 -5.226562 0.5 -5.5 C 0.488281 -5.769531 0.472656 -6.035156 0.453125 -6.296875 Z M 3.015625 -6.296875 "/></g></g></g><g fill="#ed1c24" fill-opacity="1"><g transform="translate(157.508656, 262.898157)"><g><path d="M 1.359375 -6.296875 C 1.335938 -6.035156 1.320312 -5.769531 1.3125 -5.5 C 1.300781 -5.226562 1.289062 -4.957031 1.28125 -4.6875 C 1.28125 -4.414062 1.273438 -4.148438 1.265625 -3.890625 C 1.265625 -3.628906 1.265625 -3.382812 1.265625 -3.15625 C 1.265625 -2.914062 1.265625 -2.664062 1.265625 -2.40625 C 1.273438 -2.144531 1.28125 -1.878906 1.28125 -1.609375 C 1.289062 -1.335938 1.300781 -1.066406 1.3125 -0.796875 C 1.320312 -0.523438 1.332031 -0.257812 1.34375 0 L 0.484375 0 C 0.503906 -0.257812 0.519531 -0.523438 0.53125 -0.796875 C 0.539062 -1.066406 0.546875 -1.335938 0.546875 -1.609375 C 0.554688 -1.878906 0.5625 -2.144531 0.5625 -2.40625 C 0.570312 -2.664062 0.578125 -2.914062 0.578125 -3.15625 C 0.578125 -3.382812 0.570312 -3.628906 0.5625 -3.890625 C 0.5625 -4.148438 0.554688 -4.414062 0.546875 -4.6875 C 0.546875 -4.957031 0.539062 -5.226562 0.53125 -5.5 C 0.519531 -5.769531 0.503906 -6.035156 0.484375 -6.296875 Z M 1.359375 -6.296875 "/></g></g></g><g fill="#ed1c24" fill-opacity="1"><g transform="translate(160.596764, 262.898157)"><g><path d="M 1.328125 -6.296875 C 1.304688 -6.035156 1.289062 -5.769531 1.28125 -5.5 C 1.269531 -5.226562 1.257812 -4.957031 1.25 -4.6875 C 1.25 -4.414062 1.242188 -4.148438 1.234375 -3.890625 C 1.234375 -3.628906 1.234375 -3.382812 1.234375 -3.15625 C 1.234375 -2.757812 1.234375 -2.332031 1.234375 -1.875 C 1.242188 -1.425781 1.257812 -0.976562 1.28125 -0.53125 L 3.140625 -0.53125 L 3.140625 0 L 0.453125 0 C 0.472656 -0.257812 0.488281 -0.523438 0.5 -0.796875 C 0.507812 -1.066406 0.515625 -1.335938 0.515625 -1.609375 C 0.523438 -1.878906 0.53125 -2.144531 0.53125 -2.40625 C 0.539062 -2.664062 0.546875 -2.914062 0.546875 -3.15625 C 0.546875 -3.382812 0.539062 -3.628906 0.53125 -3.890625 C 0.53125 -4.148438 0.523438 -4.414062 0.515625 -4.6875 C 0.515625 -4.957031 0.507812 -5.226562 0.5 -5.5 C 0.488281 -5.769531 0.472656 -6.035156 0.453125 -6.296875 Z M 1.328125 -6.296875 "/></g></g></g><g fill="#ed1c24" fill-opacity="1"><g transform="translate(165.036957, 262.898157)"><g><path d="M 2.84375 -3.015625 C 2.832031 -3.492188 2.816406 -3.910156 2.796875 -4.265625 C 2.785156 -4.617188 2.757812 -4.910156 2.71875 -5.140625 C 2.675781 -5.378906 2.609375 -5.554688 2.515625 -5.671875 C 2.429688 -5.785156 2.316406 -5.84375 2.171875 -5.84375 C 2.117188 -5.84375 2.050781 -5.828125 1.96875 -5.796875 C 1.894531 -5.773438 1.816406 -5.738281 1.734375 -5.6875 C 1.660156 -5.644531 1.582031 -5.585938 1.5 -5.515625 C 1.414062 -5.453125 1.335938 -5.382812 1.265625 -5.3125 C 1.242188 -4.945312 1.226562 -4.582031 1.21875 -4.21875 C 1.21875 -3.851562 1.21875 -3.476562 1.21875 -3.09375 C 1.21875 -2.8125 1.21875 -2.539062 1.21875 -2.28125 C 1.226562 -2.019531 1.234375 -1.765625 1.234375 -1.515625 C 1.242188 -1.273438 1.253906 -1.03125 1.265625 -0.78125 C 1.273438 -0.53125 1.289062 -0.269531 1.3125 0 L 0.453125 0 C 0.472656 -0.269531 0.488281 -0.53125 0.5 -0.78125 C 0.507812 -1.03125 0.515625 -1.273438 0.515625 -1.515625 C 0.523438 -1.765625 0.53125 -2.019531 0.53125 -2.28125 C 0.539062 -2.539062 0.546875 -2.8125 0.546875 -3.09375 C 0.546875 -3.375 0.539062 -3.648438 0.53125 -3.921875 C 0.53125 -4.191406 0.523438 -4.457031 0.515625 -4.71875 C 0.515625 -4.976562 0.507812 -5.238281 0.5 -5.5 C 0.488281 -5.757812 0.472656 -6.023438 0.453125 -6.296875 L 1.3125 -6.296875 L 1.28125 -5.921875 C 1.445312 -6.066406 1.625 -6.1875 1.8125 -6.28125 C 2.007812 -6.375 2.203125 -6.421875 2.390625 -6.421875 C 2.617188 -6.421875 2.816406 -6.359375 2.984375 -6.234375 C 3.148438 -6.117188 3.273438 -5.941406 3.359375 -5.703125 C 3.453125 -5.804688 3.550781 -5.898438 3.65625 -5.984375 C 3.757812 -6.066406 3.867188 -6.140625 3.984375 -6.203125 C 4.097656 -6.273438 4.210938 -6.328125 4.328125 -6.359375 C 4.441406 -6.398438 4.554688 -6.421875 4.671875 -6.421875 C 5.035156 -6.421875 5.316406 -6.273438 5.515625 -5.984375 C 5.722656 -5.691406 5.828125 -5.257812 5.828125 -4.6875 C 5.828125 -4.550781 5.820312 -4.398438 5.8125 -4.234375 C 5.8125 -4.078125 5.8125 -3.921875 5.8125 -3.765625 C 5.8125 -3.609375 5.8125 -3.460938 5.8125 -3.328125 C 5.8125 -3.203125 5.8125 -3.097656 5.8125 -3.015625 C 5.8125 -2.734375 5.8125 -2.46875 5.8125 -2.21875 C 5.8125 -1.96875 5.8125 -1.722656 5.8125 -1.484375 C 5.820312 -1.242188 5.832031 -1.003906 5.84375 -0.765625 C 5.851562 -0.523438 5.867188 -0.269531 5.890625 0 L 5.046875 0 C 5.054688 -0.269531 5.066406 -0.523438 5.078125 -0.765625 C 5.097656 -1.003906 5.109375 -1.242188 5.109375 -1.484375 C 5.117188 -1.722656 5.125 -1.96875 5.125 -2.21875 C 5.132812 -2.46875 5.132812 -2.734375 5.125 -3.015625 C 5.125 -3.492188 5.113281 -3.910156 5.09375 -4.265625 C 5.082031 -4.617188 5.054688 -4.910156 5.015625 -5.140625 C 4.972656 -5.378906 4.90625 -5.554688 4.8125 -5.671875 C 4.726562 -5.785156 4.613281 -5.84375 4.46875 -5.84375 C 4.40625 -5.84375 4.332031 -5.828125 4.25 -5.796875 C 4.175781 -5.765625 4.09375 -5.722656 4 -5.671875 C 3.914062 -5.617188 3.828125 -5.554688 3.734375 -5.484375 C 3.648438 -5.410156 3.566406 -5.332031 3.484375 -5.25 C 3.515625 -5.082031 3.53125 -4.894531 3.53125 -4.6875 C 3.53125 -4.550781 3.53125 -4.398438 3.53125 -4.234375 C 3.53125 -4.078125 3.523438 -3.921875 3.515625 -3.765625 C 3.515625 -3.609375 3.515625 -3.460938 3.515625 -3.328125 C 3.515625 -3.203125 3.515625 -3.097656 3.515625 -3.015625 C 3.515625 -2.734375 3.515625 -2.46875 3.515625 -2.21875 C 3.515625 -1.96875 3.519531 -1.722656 3.53125 -1.484375 C 3.539062 -1.242188 3.550781 -1.003906 3.5625 -0.765625 C 3.570312 -0.523438 3.582031 -0.269531 3.59375 0 L 2.75 0 C 2.769531 -0.269531 2.785156 -0.523438 2.796875 -0.765625 C 2.804688 -1.003906 2.816406 -1.242188 2.828125 -1.484375 C 2.835938 -1.722656 2.84375 -1.96875 2.84375 -2.21875 C 2.84375 -2.46875 2.84375 -2.734375 2.84375 -3.015625 Z M 2.84375 -3.015625 "/></g></g></g><g fill="#ed1c24" fill-opacity="1"><g transform="translate(172.621334, 262.898157)"><g><path d="M 1.515625 -0.390625 C 1.640625 -0.390625 1.757812 -0.410156 1.875 -0.453125 C 2 -0.492188 2.101562 -0.554688 2.1875 -0.640625 C 2.28125 -0.722656 2.351562 -0.832031 2.40625 -0.96875 C 2.46875 -1.101562 2.5 -1.265625 2.5 -1.453125 C 2.5 -1.617188 2.460938 -1.769531 2.390625 -1.90625 C 2.328125 -2.050781 2.242188 -2.1875 2.140625 -2.3125 C 2.035156 -2.445312 1.910156 -2.570312 1.765625 -2.6875 C 1.628906 -2.8125 1.488281 -2.929688 1.34375 -3.046875 C 1.207031 -3.171875 1.066406 -3.296875 0.921875 -3.421875 C 0.785156 -3.554688 0.664062 -3.695312 0.5625 -3.84375 C 0.457031 -3.988281 0.367188 -4.144531 0.296875 -4.3125 C 0.234375 -4.476562 0.203125 -4.660156 0.203125 -4.859375 C 0.203125 -5.148438 0.253906 -5.394531 0.359375 -5.59375 C 0.472656 -5.789062 0.609375 -5.953125 0.765625 -6.078125 C 0.929688 -6.203125 1.113281 -6.289062 1.3125 -6.34375 C 1.519531 -6.394531 1.71875 -6.421875 1.90625 -6.421875 C 2.101562 -6.421875 2.296875 -6.398438 2.484375 -6.359375 C 2.671875 -6.328125 2.847656 -6.296875 3.015625 -6.265625 L 3.015625 -5.34375 C 2.921875 -5.425781 2.828125 -5.5 2.734375 -5.5625 C 2.648438 -5.632812 2.5625 -5.691406 2.46875 -5.734375 C 2.382812 -5.785156 2.296875 -5.820312 2.203125 -5.84375 C 2.117188 -5.875 2.023438 -5.890625 1.921875 -5.890625 C 1.785156 -5.890625 1.660156 -5.875 1.546875 -5.84375 C 1.429688 -5.8125 1.332031 -5.757812 1.25 -5.6875 C 1.164062 -5.613281 1.097656 -5.519531 1.046875 -5.40625 C 1.003906 -5.289062 0.984375 -5.15625 0.984375 -5 C 0.984375 -4.78125 1.035156 -4.582031 1.140625 -4.40625 C 1.253906 -4.226562 1.394531 -4.054688 1.5625 -3.890625 C 1.738281 -3.734375 1.925781 -3.570312 2.125 -3.40625 C 2.320312 -3.238281 2.503906 -3.0625 2.671875 -2.875 C 2.847656 -2.695312 2.992188 -2.492188 3.109375 -2.265625 C 3.222656 -2.046875 3.28125 -1.796875 3.28125 -1.515625 C 3.28125 -1.296875 3.253906 -1.101562 3.203125 -0.9375 C 3.148438 -0.78125 3.082031 -0.640625 3 -0.515625 C 2.914062 -0.398438 2.816406 -0.300781 2.703125 -0.21875 C 2.597656 -0.132812 2.484375 -0.0664062 2.359375 -0.015625 C 2.234375 0.0351562 2.101562 0.0703125 1.96875 0.09375 C 1.84375 0.113281 1.71875 0.125 1.59375 0.125 C 1.4375 0.125 1.296875 0.117188 1.171875 0.109375 C 1.046875 0.0976562 0.925781 0.0820312 0.8125 0.0625 C 0.707031 0.0390625 0.609375 0.0195312 0.515625 0 C 0.421875 -0.03125 0.332031 -0.0625 0.25 -0.09375 L 0.25 -1.03125 C 0.34375 -0.945312 0.4375 -0.863281 0.53125 -0.78125 C 0.625 -0.707031 0.722656 -0.640625 0.828125 -0.578125 C 0.929688 -0.515625 1.039062 -0.46875 1.15625 -0.4375 C 1.269531 -0.40625 1.390625 -0.390625 1.515625 -0.390625 Z M 1.515625 -0.390625 "/></g></g></g><g fill="#ed1c24" fill-opacity="1"><g transform="translate(177.377784, 262.898157)"><g><path d="M 0.234375 -0.40625 C 0.234375 -0.53125 0.273438 -0.632812 0.359375 -0.71875 C 0.453125 -0.8125 0.566406 -0.859375 0.703125 -0.859375 C 0.765625 -0.859375 0.828125 -0.84375 0.890625 -0.8125 C 0.953125 -0.789062 1.003906 -0.753906 1.046875 -0.703125 C 1.097656 -0.648438 1.132812 -0.585938 1.15625 -0.515625 C 1.1875 -0.453125 1.203125 -0.375 1.203125 -0.28125 C 1.203125 -0.164062 1.179688 -0.0625 1.140625 0.03125 C 1.109375 0.132812 1.0625 0.226562 1 0.3125 C 0.945312 0.40625 0.882812 0.484375 0.8125 0.546875 C 0.738281 0.617188 0.671875 0.675781 0.609375 0.71875 L 0.359375 0.46875 C 0.441406 0.425781 0.507812 0.367188 0.5625 0.296875 C 0.613281 0.234375 0.640625 0.148438 0.640625 0.046875 C 0.523438 0.0234375 0.425781 -0.0195312 0.34375 -0.09375 C 0.269531 -0.175781 0.234375 -0.28125 0.234375 -0.40625 Z M 0.234375 -0.40625 "/></g></g></g><g fill="#ed1c24" fill-opacity="1"><g transform="translate(180.05339, 262.898157)"><g/></g></g><g fill="#ed1c24" fill-opacity="1"><g transform="translate(183.136908, 262.898157)"><g><path d="M 0.0625 -6.296875 L 3.203125 -6.296875 L 3.203125 -5.765625 L 2.046875 -5.765625 C 2.015625 -5.316406 1.992188 -4.863281 1.984375 -4.40625 C 1.984375 -3.957031 1.984375 -3.539062 1.984375 -3.15625 C 1.984375 -2.914062 1.984375 -2.664062 1.984375 -2.40625 C 1.992188 -2.144531 2 -1.878906 2 -1.609375 C 2.007812 -1.335938 2.019531 -1.066406 2.03125 -0.796875 C 2.039062 -0.523438 2.050781 -0.257812 2.0625 0 L 1.203125 0 C 1.222656 -0.257812 1.238281 -0.523438 1.25 -0.796875 C 1.257812 -1.066406 1.265625 -1.335938 1.265625 -1.609375 C 1.273438 -1.878906 1.28125 -2.144531 1.28125 -2.40625 C 1.289062 -2.664062 1.296875 -2.914062 1.296875 -3.15625 C 1.296875 -3.539062 1.289062 -3.957031 1.28125 -4.40625 C 1.269531 -4.863281 1.253906 -5.316406 1.234375 -5.765625 L 0.0625 -5.765625 Z M 0.0625 -6.296875 "/></g></g></g><g fill="#ed1c24" fill-opacity="1"><g transform="translate(187.664191, 262.898157)"><g><path d="M 4.28125 -3.140625 C 4.28125 -2.578125 4.226562 -2.085938 4.125 -1.671875 C 4.03125 -1.265625 3.890625 -0.925781 3.703125 -0.65625 C 3.523438 -0.394531 3.316406 -0.195312 3.078125 -0.0625 C 2.835938 0.0625 2.578125 0.125 2.296875 0.125 C 2.015625 0.125 1.753906 0.0625 1.515625 -0.0625 C 1.273438 -0.195312 1.066406 -0.394531 0.890625 -0.65625 C 0.710938 -0.925781 0.570312 -1.265625 0.46875 -1.671875 C 0.363281 -2.085938 0.3125 -2.578125 0.3125 -3.140625 C 0.3125 -3.703125 0.363281 -4.1875 0.46875 -4.59375 C 0.570312 -5.007812 0.710938 -5.351562 0.890625 -5.625 C 1.066406 -5.894531 1.273438 -6.09375 1.515625 -6.21875 C 1.753906 -6.351562 2.015625 -6.421875 2.296875 -6.421875 C 2.578125 -6.421875 2.835938 -6.351562 3.078125 -6.21875 C 3.316406 -6.09375 3.523438 -5.894531 3.703125 -5.625 C 3.890625 -5.351562 4.03125 -5.007812 4.125 -4.59375 C 4.226562 -4.1875 4.28125 -3.703125 4.28125 -3.140625 Z M 3.5 -3.140625 C 3.5 -3.617188 3.46875 -4.023438 3.40625 -4.359375 C 3.34375 -4.703125 3.253906 -4.984375 3.140625 -5.203125 C 3.035156 -5.429688 2.910156 -5.597656 2.765625 -5.703125 C 2.617188 -5.804688 2.460938 -5.859375 2.296875 -5.859375 C 2.128906 -5.859375 1.972656 -5.804688 1.828125 -5.703125 C 1.679688 -5.597656 1.550781 -5.429688 1.4375 -5.203125 C 1.332031 -4.984375 1.25 -4.703125 1.1875 -4.359375 C 1.125 -4.023438 1.09375 -3.617188 1.09375 -3.140625 C 1.09375 -2.671875 1.125 -2.265625 1.1875 -1.921875 C 1.25 -1.578125 1.332031 -1.296875 1.4375 -1.078125 C 1.550781 -0.859375 1.679688 -0.695312 1.828125 -0.59375 C 1.972656 -0.488281 2.128906 -0.4375 2.296875 -0.4375 C 2.460938 -0.4375 2.617188 -0.488281 2.765625 -0.59375 C 2.910156 -0.695312 3.035156 -0.859375 3.140625 -1.078125 C 3.253906 -1.296875 3.34375 -1.578125 3.40625 -1.921875 C 3.46875 -2.265625 3.5 -2.671875 3.5 -3.140625 Z M 3.5 -3.140625 "/></g></g></g><g fill="#ed1c24" fill-opacity="1"><g transform="translate(193.506891, 262.898157)"><g><path d="M 1.203125 -3.28125 C 1.203125 -3.0625 1.203125 -2.847656 1.203125 -2.640625 C 1.210938 -2.441406 1.21875 -2.25 1.21875 -2.0625 C 1.226562 -1.882812 1.238281 -1.722656 1.25 -1.578125 C 1.257812 -1.429688 1.269531 -1.304688 1.28125 -1.203125 C 1.320312 -0.929688 1.398438 -0.738281 1.515625 -0.625 C 1.628906 -0.507812 1.773438 -0.453125 1.953125 -0.453125 C 2.054688 -0.453125 2.160156 -0.476562 2.265625 -0.53125 C 2.367188 -0.582031 2.46875 -0.648438 2.5625 -0.734375 C 2.664062 -0.816406 2.765625 -0.910156 2.859375 -1.015625 C 2.953125 -1.128906 3.03125 -1.242188 3.09375 -1.359375 C 3.113281 -1.972656 3.125 -2.585938 3.125 -3.203125 C 3.125 -3.484375 3.125 -3.753906 3.125 -4.015625 C 3.125 -4.273438 3.117188 -4.523438 3.109375 -4.765625 C 3.097656 -5.015625 3.085938 -5.265625 3.078125 -5.515625 C 3.066406 -5.765625 3.054688 -6.023438 3.046875 -6.296875 L 3.890625 -6.296875 C 3.867188 -6.023438 3.851562 -5.765625 3.84375 -5.515625 C 3.832031 -5.265625 3.820312 -5.015625 3.8125 -4.765625 C 3.8125 -4.523438 3.804688 -4.273438 3.796875 -4.015625 C 3.796875 -3.753906 3.796875 -3.484375 3.796875 -3.203125 C 3.796875 -2.921875 3.796875 -2.644531 3.796875 -2.375 C 3.804688 -2.101562 3.8125 -1.835938 3.8125 -1.578125 C 3.820312 -1.316406 3.832031 -1.054688 3.84375 -0.796875 C 3.851562 -0.535156 3.867188 -0.269531 3.890625 0 L 3.03125 0 C 3.039062 -0.113281 3.046875 -0.226562 3.046875 -0.34375 C 3.054688 -0.46875 3.066406 -0.585938 3.078125 -0.703125 C 2.984375 -0.597656 2.882812 -0.492188 2.78125 -0.390625 C 2.6875 -0.296875 2.582031 -0.207031 2.46875 -0.125 C 2.351562 -0.0507812 2.226562 0.00390625 2.09375 0.046875 C 1.957031 0.0859375 1.8125 0.109375 1.65625 0.109375 C 1.289062 0.109375 1.007812 -0.03125 0.8125 -0.3125 C 0.613281 -0.601562 0.515625 -1.035156 0.515625 -1.609375 C 0.515625 -1.753906 0.515625 -1.90625 0.515625 -2.0625 C 0.515625 -2.21875 0.515625 -2.375 0.515625 -2.53125 C 0.523438 -2.6875 0.53125 -2.828125 0.53125 -2.953125 C 0.53125 -3.085938 0.53125 -3.195312 0.53125 -3.28125 C 0.53125 -3.5625 0.523438 -3.828125 0.515625 -4.078125 C 0.515625 -4.328125 0.507812 -4.570312 0.5 -4.8125 C 0.5 -5.050781 0.492188 -5.289062 0.484375 -5.53125 C 0.472656 -5.769531 0.460938 -6.023438 0.453125 -6.296875 L 1.296875 -6.296875 C 1.273438 -6.023438 1.257812 -5.769531 1.25 -5.53125 C 1.238281 -5.289062 1.226562 -5.050781 1.21875 -4.8125 C 1.207031 -4.570312 1.203125 -4.328125 1.203125 -4.078125 C 1.203125 -3.828125 1.203125 -3.5625 1.203125 -3.28125 Z M 1.203125 -3.28125 "/></g></g></g><g fill="#ed1c24" fill-opacity="1"><g transform="translate(199.10209, 262.898157)"><g><path d="M 0.0625 -6.296875 L 3.203125 -6.296875 L 3.203125 -5.765625 L 2.046875 -5.765625 C 2.015625 -5.316406 1.992188 -4.863281 1.984375 -4.40625 C 1.984375 -3.957031 1.984375 -3.539062 1.984375 -3.15625 C 1.984375 -2.914062 1.984375 -2.664062 1.984375 -2.40625 C 1.992188 -2.144531 2 -1.878906 2 -1.609375 C 2.007812 -1.335938 2.019531 -1.066406 2.03125 -0.796875 C 2.039062 -0.523438 2.050781 -0.257812 2.0625 0 L 1.203125 0 C 1.222656 -0.257812 1.238281 -0.523438 1.25 -0.796875 C 1.257812 -1.066406 1.265625 -1.335938 1.265625 -1.609375 C 1.273438 -1.878906 1.28125 -2.144531 1.28125 -2.40625 C 1.289062 -2.664062 1.296875 -2.914062 1.296875 -3.15625 C 1.296875 -3.539062 1.289062 -3.957031 1.28125 -4.40625 C 1.269531 -4.863281 1.253906 -5.316406 1.234375 -5.765625 L 0.0625 -5.765625 Z M 0.0625 -6.296875 "/></g></g></g><g fill="#ed1c24" fill-opacity="1"><g transform="translate(203.629373, 262.898157)"><g><path d="M 2.515625 -0.40625 C 2.640625 -0.40625 2.753906 -0.421875 2.859375 -0.453125 C 2.972656 -0.492188 3.078125 -0.539062 3.171875 -0.59375 C 3.265625 -0.644531 3.347656 -0.703125 3.421875 -0.765625 C 3.503906 -0.828125 3.578125 -0.882812 3.640625 -0.9375 L 3.640625 -0.03125 C 3.566406 -0.0195312 3.488281 -0.00390625 3.40625 0.015625 C 3.320312 0.0351562 3.226562 0.0507812 3.125 0.0625 C 3.03125 0.0820312 2.921875 0.0976562 2.796875 0.109375 C 2.679688 0.117188 2.539062 0.125 2.375 0.125 C 2.050781 0.125 1.757812 0.0507812 1.5 -0.09375 C 1.25 -0.25 1.035156 -0.460938 0.859375 -0.734375 C 0.679688 -1.015625 0.546875 -1.351562 0.453125 -1.75 C 0.359375 -2.15625 0.3125 -2.613281 0.3125 -3.125 C 0.3125 -3.613281 0.347656 -4.0625 0.421875 -4.46875 C 0.503906 -4.875 0.625 -5.21875 0.78125 -5.5 C 0.9375 -5.789062 1.128906 -6.015625 1.359375 -6.171875 C 1.585938 -6.335938 1.847656 -6.421875 2.140625 -6.421875 C 2.453125 -6.421875 2.71875 -6.347656 2.9375 -6.203125 C 3.164062 -6.054688 3.347656 -5.847656 3.484375 -5.578125 C 3.628906 -5.304688 3.734375 -4.972656 3.796875 -4.578125 C 3.859375 -4.191406 3.890625 -3.742188 3.890625 -3.234375 L 3.890625 -3.0625 L 1.125 -3.0625 C 1.144531 -2.570312 1.179688 -2.160156 1.234375 -1.828125 C 1.296875 -1.492188 1.382812 -1.21875 1.5 -1 C 1.613281 -0.789062 1.753906 -0.640625 1.921875 -0.546875 C 2.085938 -0.453125 2.285156 -0.40625 2.515625 -0.40625 Z M 3.109375 -3.59375 C 3.097656 -3.769531 3.085938 -3.945312 3.078125 -4.125 C 3.066406 -4.3125 3.046875 -4.488281 3.015625 -4.65625 C 2.992188 -4.832031 2.960938 -4.992188 2.921875 -5.140625 C 2.878906 -5.296875 2.820312 -5.425781 2.75 -5.53125 C 2.675781 -5.644531 2.585938 -5.734375 2.484375 -5.796875 C 2.390625 -5.859375 2.269531 -5.890625 2.125 -5.890625 C 1.945312 -5.890625 1.796875 -5.820312 1.671875 -5.6875 C 1.554688 -5.5625 1.457031 -5.390625 1.375 -5.171875 C 1.300781 -4.953125 1.242188 -4.703125 1.203125 -4.421875 C 1.171875 -4.148438 1.148438 -3.875 1.140625 -3.59375 Z M 3.109375 -3.59375 "/></g></g></g><g fill="#ed1c24" fill-opacity="1"><g transform="translate(209.050405, 262.898157)"><g><path d="M 1.515625 -0.390625 C 1.640625 -0.390625 1.757812 -0.410156 1.875 -0.453125 C 2 -0.492188 2.101562 -0.554688 2.1875 -0.640625 C 2.28125 -0.722656 2.351562 -0.832031 2.40625 -0.96875 C 2.46875 -1.101562 2.5 -1.265625 2.5 -1.453125 C 2.5 -1.617188 2.460938 -1.769531 2.390625 -1.90625 C 2.328125 -2.050781 2.242188 -2.1875 2.140625 -2.3125 C 2.035156 -2.445312 1.910156 -2.570312 1.765625 -2.6875 C 1.628906 -2.8125 1.488281 -2.929688 1.34375 -3.046875 C 1.207031 -3.171875 1.066406 -3.296875 0.921875 -3.421875 C 0.785156 -3.554688 0.664062 -3.695312 0.5625 -3.84375 C 0.457031 -3.988281 0.367188 -4.144531 0.296875 -4.3125 C 0.234375 -4.476562 0.203125 -4.660156 0.203125 -4.859375 C 0.203125 -5.148438 0.253906 -5.394531 0.359375 -5.59375 C 0.472656 -5.789062 0.609375 -5.953125 0.765625 -6.078125 C 0.929688 -6.203125 1.113281 -6.289062 1.3125 -6.34375 C 1.519531 -6.394531 1.71875 -6.421875 1.90625 -6.421875 C 2.101562 -6.421875 2.296875 -6.398438 2.484375 -6.359375 C 2.671875 -6.328125 2.847656 -6.296875 3.015625 -6.265625 L 3.015625 -5.34375 C 2.921875 -5.425781 2.828125 -5.5 2.734375 -5.5625 C 2.648438 -5.632812 2.5625 -5.691406 2.46875 -5.734375 C 2.382812 -5.785156 2.296875 -5.820312 2.203125 -5.84375 C 2.117188 -5.875 2.023438 -5.890625 1.921875 -5.890625 C 1.785156 -5.890625 1.660156 -5.875 1.546875 -5.84375 C 1.429688 -5.8125 1.332031 -5.757812 1.25 -5.6875 C 1.164062 -5.613281 1.097656 -5.519531 1.046875 -5.40625 C 1.003906 -5.289062 0.984375 -5.15625 0.984375 -5 C 0.984375 -4.78125 1.035156 -4.582031 1.140625 -4.40625 C 1.253906 -4.226562 1.394531 -4.054688 1.5625 -3.890625 C 1.738281 -3.734375 1.925781 -3.570312 2.125 -3.40625 C 2.320312 -3.238281 2.503906 -3.0625 2.671875 -2.875 C 2.847656 -2.695312 2.992188 -2.492188 3.109375 -2.265625 C 3.222656 -2.046875 3.28125 -1.796875 3.28125 -1.515625 C 3.28125 -1.296875 3.253906 -1.101562 3.203125 -0.9375 C 3.148438 -0.78125 3.082031 -0.640625 3 -0.515625 C 2.914062 -0.398438 2.816406 -0.300781 2.703125 -0.21875 C 2.597656 -0.132812 2.484375 -0.0664062 2.359375 -0.015625 C 2.234375 0.0351562 2.101562 0.0703125 1.96875 0.09375 C 1.84375 0.113281 1.71875 0.125 1.59375 0.125 C 1.4375 0.125 1.296875 0.117188 1.171875 0.109375 C 1.046875 0.0976562 0.925781 0.0820312 0.8125 0.0625 C 0.707031 0.0390625 0.609375 0.0195312 0.515625 0 C 0.421875 -0.03125 0.332031 -0.0625 0.25 -0.09375 L 0.25 -1.03125 C 0.34375 -0.945312 0.4375 -0.863281 0.53125 -0.78125 C 0.625 -0.707031 0.722656 -0.640625 0.828125 -0.578125 C 0.929688 -0.515625 1.039062 -0.46875 1.15625 -0.4375 C 1.269531 -0.40625 1.390625 -0.390625 1.515625 -0.390625 Z M 1.515625 -0.390625 "/></g></g></g><g fill="#ed1c24" fill-opacity="1"><g transform="translate(213.806855, 262.898157)"><g/></g></g><g fill="#ed1c24" fill-opacity="1"><g transform="translate(216.890374, 262.898157)"><g><path d="M 1.328125 -6.296875 C 1.304688 -6.035156 1.289062 -5.769531 1.28125 -5.5 C 1.269531 -5.226562 1.257812 -4.957031 1.25 -4.6875 C 1.25 -4.414062 1.242188 -4.148438 1.234375 -3.890625 C 1.234375 -3.628906 1.234375 -3.382812 1.234375 -3.15625 C 1.234375 -2.757812 1.234375 -2.332031 1.234375 -1.875 C 1.242188 -1.425781 1.257812 -0.976562 1.28125 -0.53125 L 3.140625 -0.53125 L 3.140625 0 L 0.453125 0 C 0.472656 -0.257812 0.488281 -0.523438 0.5 -0.796875 C 0.507812 -1.066406 0.515625 -1.335938 0.515625 -1.609375 C 0.523438 -1.878906 0.53125 -2.144531 0.53125 -2.40625 C 0.539062 -2.664062 0.546875 -2.914062 0.546875 -3.15625 C 0.546875 -3.382812 0.539062 -3.628906 0.53125 -3.890625 C 0.53125 -4.148438 0.523438 -4.414062 0.515625 -4.6875 C 0.515625 -4.957031 0.507812 -5.226562 0.5 -5.5 C 0.488281 -5.769531 0.472656 -6.035156 0.453125 -6.296875 Z M 1.328125 -6.296875 "/></g></g></g><g fill="#ed1c24" fill-opacity="1"><g transform="translate(221.330567, 262.898157)"><g><path d="M 2.515625 -0.40625 C 2.640625 -0.40625 2.753906 -0.421875 2.859375 -0.453125 C 2.972656 -0.492188 3.078125 -0.539062 3.171875 -0.59375 C 3.265625 -0.644531 3.347656 -0.703125 3.421875 -0.765625 C 3.503906 -0.828125 3.578125 -0.882812 3.640625 -0.9375 L 3.640625 -0.03125 C 3.566406 -0.0195312 3.488281 -0.00390625 3.40625 0.015625 C 3.320312 0.0351562 3.226562 0.0507812 3.125 0.0625 C 3.03125 0.0820312 2.921875 0.0976562 2.796875 0.109375 C 2.679688 0.117188 2.539062 0.125 2.375 0.125 C 2.050781 0.125 1.757812 0.0507812 1.5 -0.09375 C 1.25 -0.25 1.035156 -0.460938 0.859375 -0.734375 C 0.679688 -1.015625 0.546875 -1.351562 0.453125 -1.75 C 0.359375 -2.15625 0.3125 -2.613281 0.3125 -3.125 C 0.3125 -3.613281 0.347656 -4.0625 0.421875 -4.46875 C 0.503906 -4.875 0.625 -5.21875 0.78125 -5.5 C 0.9375 -5.789062 1.128906 -6.015625 1.359375 -6.171875 C 1.585938 -6.335938 1.847656 -6.421875 2.140625 -6.421875 C 2.453125 -6.421875 2.71875 -6.347656 2.9375 -6.203125 C 3.164062 -6.054688 3.347656 -5.847656 3.484375 -5.578125 C 3.628906 -5.304688 3.734375 -4.972656 3.796875 -4.578125 C 3.859375 -4.191406 3.890625 -3.742188 3.890625 -3.234375 L 3.890625 -3.0625 L 1.125 -3.0625 C 1.144531 -2.570312 1.179688 -2.160156 1.234375 -1.828125 C 1.296875 -1.492188 1.382812 -1.21875 1.5 -1 C 1.613281 -0.789062 1.753906 -0.640625 1.921875 -0.546875 C 2.085938 -0.453125 2.285156 -0.40625 2.515625 -0.40625 Z M 3.109375 -3.59375 C 3.097656 -3.769531 3.085938 -3.945312 3.078125 -4.125 C 3.066406 -4.3125 3.046875 -4.488281 3.015625 -4.65625 C 2.992188 -4.832031 2.960938 -4.992188 2.921875 -5.140625 C 2.878906 -5.296875 2.820312 -5.425781 2.75 -5.53125 C 2.675781 -5.644531 2.585938 -5.734375 2.484375 -5.796875 C 2.390625 -5.859375 2.269531 -5.890625 2.125 -5.890625 C 1.945312 -5.890625 1.796875 -5.820312 1.671875 -5.6875 C 1.554688 -5.5625 1.457031 -5.390625 1.375 -5.171875 C 1.300781 -4.953125 1.242188 -4.703125 1.203125 -4.421875 C 1.171875 -4.148438 1.148438 -3.875 1.140625 -3.59375 Z M 3.109375 -3.59375 "/></g></g></g><g fill="#ed1c24" fill-opacity="1"><g transform="translate(226.751598, 262.898157)"><g><path d="M 1.515625 -0.390625 C 1.640625 -0.390625 1.757812 -0.410156 1.875 -0.453125 C 2 -0.492188 2.101562 -0.554688 2.1875 -0.640625 C 2.28125 -0.722656 2.351562 -0.832031 2.40625 -0.96875 C 2.46875 -1.101562 2.5 -1.265625 2.5 -1.453125 C 2.5 -1.617188 2.460938 -1.769531 2.390625 -1.90625 C 2.328125 -2.050781 2.242188 -2.1875 2.140625 -2.3125 C 2.035156 -2.445312 1.910156 -2.570312 1.765625 -2.6875 C 1.628906 -2.8125 1.488281 -2.929688 1.34375 -3.046875 C 1.207031 -3.171875 1.066406 -3.296875 0.921875 -3.421875 C 0.785156 -3.554688 0.664062 -3.695312 0.5625 -3.84375 C 0.457031 -3.988281 0.367188 -4.144531 0.296875 -4.3125 C 0.234375 -4.476562 0.203125 -4.660156 0.203125 -4.859375 C 0.203125 -5.148438 0.253906 -5.394531 0.359375 -5.59375 C 0.472656 -5.789062 0.609375 -5.953125 0.765625 -6.078125 C 0.929688 -6.203125 1.113281 -6.289062 1.3125 -6.34375 C 1.519531 -6.394531 1.71875 -6.421875 1.90625 -6.421875 C 2.101562 -6.421875 2.296875 -6.398438 2.484375 -6.359375 C 2.671875 -6.328125 2.847656 -6.296875 3.015625 -6.265625 L 3.015625 -5.34375 C 2.921875 -5.425781 2.828125 -5.5 2.734375 -5.5625 C 2.648438 -5.632812 2.5625 -5.691406 2.46875 -5.734375 C 2.382812 -5.785156 2.296875 -5.820312 2.203125 -5.84375 C 2.117188 -5.875 2.023438 -5.890625 1.921875 -5.890625 C 1.785156 -5.890625 1.660156 -5.875 1.546875 -5.84375 C 1.429688 -5.8125 1.332031 -5.757812 1.25 -5.6875 C 1.164062 -5.613281 1.097656 -5.519531 1.046875 -5.40625 C 1.003906 -5.289062 0.984375 -5.15625 0.984375 -5 C 0.984375 -4.78125 1.035156 -4.582031 1.140625 -4.40625 C 1.253906 -4.226562 1.394531 -4.054688 1.5625 -3.890625 C 1.738281 -3.734375 1.925781 -3.570312 2.125 -3.40625 C 2.320312 -3.238281 2.503906 -3.0625 2.671875 -2.875 C 2.847656 -2.695312 2.992188 -2.492188 3.109375 -2.265625 C 3.222656 -2.046875 3.28125 -1.796875 3.28125 -1.515625 C 3.28125 -1.296875 3.253906 -1.101562 3.203125 -0.9375 C 3.148438 -0.78125 3.082031 -0.640625 3 -0.515625 C 2.914062 -0.398438 2.816406 -0.300781 2.703125 -0.21875 C 2.597656 -0.132812 2.484375 -0.0664062 2.359375 -0.015625 C 2.234375 0.0351562 2.101562 0.0703125 1.96875 0.09375 C 1.84375 0.113281 1.71875 0.125 1.59375 0.125 C 1.4375 0.125 1.296875 0.117188 1.171875 0.109375 C 1.046875 0.0976562 0.925781 0.0820312 0.8125 0.0625 C 0.707031 0.0390625 0.609375 0.0195312 0.515625 0 C 0.421875 -0.03125 0.332031 -0.0625 0.25 -0.09375 L 0.25 -1.03125 C 0.34375 -0.945312 0.4375 -0.863281 0.53125 -0.78125 C 0.625 -0.707031 0.722656 -0.640625 0.828125 -0.578125 C 0.929688 -0.515625 1.039062 -0.46875 1.15625 -0.4375 C 1.269531 -0.40625 1.390625 -0.390625 1.515625 -0.390625 Z M 1.515625 -0.390625 "/></g></g></g><g fill="#ed1c24" fill-opacity="1"><g transform="translate(231.508048, 262.898157)"><g/></g></g><g fill="#ed1c24" fill-opacity="1"><g transform="translate(234.591567, 262.898157)"><g><path d="M 1.359375 -6.296875 C 1.335938 -6.035156 1.320312 -5.769531 1.3125 -5.5 C 1.300781 -5.226562 1.289062 -4.957031 1.28125 -4.6875 C 1.28125 -4.414062 1.273438 -4.148438 1.265625 -3.890625 C 1.265625 -3.628906 1.265625 -3.382812 1.265625 -3.15625 C 1.265625 -2.914062 1.265625 -2.664062 1.265625 -2.40625 C 1.273438 -2.144531 1.28125 -1.878906 1.28125 -1.609375 C 1.289062 -1.335938 1.300781 -1.066406 1.3125 -0.796875 C 1.320312 -0.523438 1.332031 -0.257812 1.34375 0 L 0.484375 0 C 0.503906 -0.257812 0.519531 -0.523438 0.53125 -0.796875 C 0.539062 -1.066406 0.546875 -1.335938 0.546875 -1.609375 C 0.554688 -1.878906 0.5625 -2.144531 0.5625 -2.40625 C 0.570312 -2.664062 0.578125 -2.914062 0.578125 -3.15625 C 0.578125 -3.382812 0.570312 -3.628906 0.5625 -3.890625 C 0.5625 -4.148438 0.554688 -4.414062 0.546875 -4.6875 C 0.546875 -4.957031 0.539062 -5.226562 0.53125 -5.5 C 0.519531 -5.769531 0.503906 -6.035156 0.484375 -6.296875 Z M 1.359375 -6.296875 "/></g></g></g><g fill="#ed1c24" fill-opacity="1"><g transform="translate(237.679675, 262.898157)"><g><path d="M 3.140625 -3.015625 C 3.128906 -3.492188 3.117188 -3.910156 3.109375 -4.265625 C 3.097656 -4.617188 3.066406 -4.910156 3.015625 -5.140625 C 2.972656 -5.378906 2.910156 -5.554688 2.828125 -5.671875 C 2.742188 -5.785156 2.625 -5.84375 2.46875 -5.84375 C 2.394531 -5.84375 2.300781 -5.816406 2.1875 -5.765625 C 2.070312 -5.710938 1.957031 -5.644531 1.84375 -5.5625 C 1.726562 -5.476562 1.617188 -5.378906 1.515625 -5.265625 C 1.410156 -5.160156 1.320312 -5.050781 1.25 -4.9375 C 1.226562 -4.332031 1.21875 -3.71875 1.21875 -3.09375 C 1.21875 -2.8125 1.21875 -2.539062 1.21875 -2.28125 C 1.226562 -2.019531 1.234375 -1.765625 1.234375 -1.515625 C 1.242188 -1.273438 1.253906 -1.03125 1.265625 -0.78125 C 1.273438 -0.53125 1.289062 -0.269531 1.3125 0 L 0.453125 0 C 0.472656 -0.269531 0.488281 -0.53125 0.5 -0.78125 C 0.507812 -1.03125 0.515625 -1.273438 0.515625 -1.515625 C 0.523438 -1.765625 0.53125 -2.019531 0.53125 -2.28125 C 0.539062 -2.539062 0.546875 -2.8125 0.546875 -3.09375 C 0.546875 -3.375 0.539062 -3.648438 0.53125 -3.921875 C 0.53125 -4.191406 0.523438 -4.457031 0.515625 -4.71875 C 0.515625 -4.976562 0.507812 -5.238281 0.5 -5.5 C 0.488281 -5.757812 0.472656 -6.023438 0.453125 -6.296875 L 1.3125 -6.296875 L 1.265625 -5.59375 C 1.359375 -5.695312 1.460938 -5.796875 1.578125 -5.890625 C 1.691406 -5.992188 1.804688 -6.082031 1.921875 -6.15625 C 2.046875 -6.238281 2.171875 -6.300781 2.296875 -6.34375 C 2.429688 -6.394531 2.5625 -6.421875 2.6875 -6.421875 C 3.050781 -6.421875 3.332031 -6.273438 3.53125 -5.984375 C 3.726562 -5.691406 3.828125 -5.257812 3.828125 -4.6875 C 3.828125 -4.550781 3.828125 -4.398438 3.828125 -4.234375 C 3.828125 -4.078125 3.820312 -3.921875 3.8125 -3.765625 C 3.8125 -3.609375 3.8125 -3.460938 3.8125 -3.328125 C 3.8125 -3.203125 3.8125 -3.097656 3.8125 -3.015625 C 3.8125 -2.734375 3.8125 -2.46875 3.8125 -2.21875 C 3.820312 -1.96875 3.828125 -1.722656 3.828125 -1.484375 C 3.835938 -1.242188 3.847656 -1.003906 3.859375 -0.765625 C 3.867188 -0.523438 3.878906 -0.269531 3.890625 0 L 3.046875 0 C 3.066406 -0.269531 3.082031 -0.523438 3.09375 -0.765625 C 3.101562 -1.003906 3.113281 -1.242188 3.125 -1.484375 C 3.132812 -1.722656 3.140625 -1.96875 3.140625 -2.21875 C 3.140625 -2.46875 3.140625 -2.734375 3.140625 -3.015625 Z M 3.140625 -3.015625 "/></g></g></g><g fill="#ed1c24" fill-opacity="1"><g transform="translate(243.274874, 262.898157)"><g><path d="M 3.265625 -5.59375 C 3.222656 -5.632812 3.171875 -5.671875 3.109375 -5.703125 C 3.046875 -5.734375 2.972656 -5.757812 2.890625 -5.78125 C 2.816406 -5.800781 2.738281 -5.816406 2.65625 -5.828125 C 2.570312 -5.835938 2.5 -5.84375 2.4375 -5.84375 C 2.238281 -5.84375 2.0625 -5.804688 1.90625 -5.734375 C 1.757812 -5.671875 1.632812 -5.578125 1.53125 -5.453125 C 1.4375 -5.328125 1.363281 -5.171875 1.3125 -4.984375 C 1.269531 -4.804688 1.25 -4.609375 1.25 -4.390625 L 1.25 -3.625 L 3.03125 -3.625 L 3.03125 -3.09375 L 1.25 -3.09375 L 1.25 -2.921875 C 1.25 -2.453125 1.253906 -1.972656 1.265625 -1.484375 C 1.273438 -0.992188 1.296875 -0.5 1.328125 0 L 0.46875 0 C 0.488281 -0.5 0.503906 -0.992188 0.515625 -1.484375 C 0.535156 -1.984375 0.546875 -2.460938 0.546875 -2.921875 L 0.546875 -4.390625 C 0.546875 -4.703125 0.582031 -4.984375 0.65625 -5.234375 C 0.738281 -5.484375 0.859375 -5.695312 1.015625 -5.875 C 1.179688 -6.050781 1.378906 -6.1875 1.609375 -6.28125 C 1.847656 -6.375 2.125 -6.421875 2.4375 -6.421875 C 2.488281 -6.421875 2.550781 -6.414062 2.625 -6.40625 C 2.707031 -6.40625 2.785156 -6.398438 2.859375 -6.390625 C 2.941406 -6.378906 3.015625 -6.367188 3.078125 -6.359375 C 3.148438 -6.347656 3.210938 -6.332031 3.265625 -6.3125 Z M 3.265625 -5.59375 "/></g></g></g><g fill="#ed1c24" fill-opacity="1"><g transform="translate(247.880068, 262.898157)"><g><path d="M 4.28125 -3.140625 C 4.28125 -2.578125 4.226562 -2.085938 4.125 -1.671875 C 4.03125 -1.265625 3.890625 -0.925781 3.703125 -0.65625 C 3.523438 -0.394531 3.316406 -0.195312 3.078125 -0.0625 C 2.835938 0.0625 2.578125 0.125 2.296875 0.125 C 2.015625 0.125 1.753906 0.0625 1.515625 -0.0625 C 1.273438 -0.195312 1.066406 -0.394531 0.890625 -0.65625 C 0.710938 -0.925781 0.570312 -1.265625 0.46875 -1.671875 C 0.363281 -2.085938 0.3125 -2.578125 0.3125 -3.140625 C 0.3125 -3.703125 0.363281 -4.1875 0.46875 -4.59375 C 0.570312 -5.007812 0.710938 -5.351562 0.890625 -5.625 C 1.066406 -5.894531 1.273438 -6.09375 1.515625 -6.21875 C 1.753906 -6.351562 2.015625 -6.421875 2.296875 -6.421875 C 2.578125 -6.421875 2.835938 -6.351562 3.078125 -6.21875 C 3.316406 -6.09375 3.523438 -5.894531 3.703125 -5.625 C 3.890625 -5.351562 4.03125 -5.007812 4.125 -4.59375 C 4.226562 -4.1875 4.28125 -3.703125 4.28125 -3.140625 Z M 3.5 -3.140625 C 3.5 -3.617188 3.46875 -4.023438 3.40625 -4.359375 C 3.34375 -4.703125 3.253906 -4.984375 3.140625 -5.203125 C 3.035156 -5.429688 2.910156 -5.597656 2.765625 -5.703125 C 2.617188 -5.804688 2.460938 -5.859375 2.296875 -5.859375 C 2.128906 -5.859375 1.972656 -5.804688 1.828125 -5.703125 C 1.679688 -5.597656 1.550781 -5.429688 1.4375 -5.203125 C 1.332031 -4.984375 1.25 -4.703125 1.1875 -4.359375 C 1.125 -4.023438 1.09375 -3.617188 1.09375 -3.140625 C 1.09375 -2.671875 1.125 -2.265625 1.1875 -1.921875 C 1.25 -1.578125 1.332031 -1.296875 1.4375 -1.078125 C 1.550781 -0.859375 1.679688 -0.695312 1.828125 -0.59375 C 1.972656 -0.488281 2.128906 -0.4375 2.296875 -0.4375 C 2.460938 -0.4375 2.617188 -0.488281 2.765625 -0.59375 C 2.910156 -0.695312 3.035156 -0.859375 3.140625 -1.078125 C 3.253906 -1.296875 3.34375 -1.578125 3.40625 -1.921875 C 3.46875 -2.265625 3.5 -2.671875 3.5 -3.140625 Z M 3.5 -3.140625 "/></g></g></g><g fill="#ed1c24" fill-opacity="1"><g transform="translate(253.722769, 262.898157)"><g><path d="M 1.515625 -0.390625 C 1.640625 -0.390625 1.757812 -0.410156 1.875 -0.453125 C 2 -0.492188 2.101562 -0.554688 2.1875 -0.640625 C 2.28125 -0.722656 2.351562 -0.832031 2.40625 -0.96875 C 2.46875 -1.101562 2.5 -1.265625 2.5 -1.453125 C 2.5 -1.617188 2.460938 -1.769531 2.390625 -1.90625 C 2.328125 -2.050781 2.242188 -2.1875 2.140625 -2.3125 C 2.035156 -2.445312 1.910156 -2.570312 1.765625 -2.6875 C 1.628906 -2.8125 1.488281 -2.929688 1.34375 -3.046875 C 1.207031 -3.171875 1.066406 -3.296875 0.921875 -3.421875 C 0.785156 -3.554688 0.664062 -3.695312 0.5625 -3.84375 C 0.457031 -3.988281 0.367188 -4.144531 0.296875 -4.3125 C 0.234375 -4.476562 0.203125 -4.660156 0.203125 -4.859375 C 0.203125 -5.148438 0.253906 -5.394531 0.359375 -5.59375 C 0.472656 -5.789062 0.609375 -5.953125 0.765625 -6.078125 C 0.929688 -6.203125 1.113281 -6.289062 1.3125 -6.34375 C 1.519531 -6.394531 1.71875 -6.421875 1.90625 -6.421875 C 2.101562 -6.421875 2.296875 -6.398438 2.484375 -6.359375 C 2.671875 -6.328125 2.847656 -6.296875 3.015625 -6.265625 L 3.015625 -5.34375 C 2.921875 -5.425781 2.828125 -5.5 2.734375 -5.5625 C 2.648438 -5.632812 2.5625 -5.691406 2.46875 -5.734375 C 2.382812 -5.785156 2.296875 -5.820312 2.203125 -5.84375 C 2.117188 -5.875 2.023438 -5.890625 1.921875 -5.890625 C 1.785156 -5.890625 1.660156 -5.875 1.546875 -5.84375 C 1.429688 -5.8125 1.332031 -5.757812 1.25 -5.6875 C 1.164062 -5.613281 1.097656 -5.519531 1.046875 -5.40625 C 1.003906 -5.289062 0.984375 -5.15625 0.984375 -5 C 0.984375 -4.78125 1.035156 -4.582031 1.140625 -4.40625 C 1.253906 -4.226562 1.394531 -4.054688 1.5625 -3.890625 C 1.738281 -3.734375 1.925781 -3.570312 2.125 -3.40625 C 2.320312 -3.238281 2.503906 -3.0625 2.671875 -2.875 C 2.847656 -2.695312 2.992188 -2.492188 3.109375 -2.265625 C 3.222656 -2.046875 3.28125 -1.796875 3.28125 -1.515625 C 3.28125 -1.296875 3.253906 -1.101562 3.203125 -0.9375 C 3.148438 -0.78125 3.082031 -0.640625 3 -0.515625 C 2.914062 -0.398438 2.816406 -0.300781 2.703125 -0.21875 C 2.597656 -0.132812 2.484375 -0.0664062 2.359375 -0.015625 C 2.234375 0.0351562 2.101562 0.0703125 1.96875 0.09375 C 1.84375 0.113281 1.71875 0.125 1.59375 0.125 C 1.4375 0.125 1.296875 0.117188 1.171875 0.109375 C 1.046875 0.0976562 0.925781 0.0820312 0.8125 0.0625 C 0.707031 0.0390625 0.609375 0.0195312 0.515625 0 C 0.421875 -0.03125 0.332031 -0.0625 0.25 -0.09375 L 0.25 -1.03125 C 0.34375 -0.945312 0.4375 -0.863281 0.53125 -0.78125 C 0.625 -0.707031 0.722656 -0.640625 0.828125 -0.578125 C 0.929688 -0.515625 1.039062 -0.46875 1.15625 -0.4375 C 1.269531 -0.40625 1.390625 -0.390625 1.515625 -0.390625 Z M 1.515625 -0.390625 "/></g></g></g><g fill="#ed1c24" fill-opacity="1"><g transform="translate(258.479219, 262.898157)"><g/></g></g><g fill="#ed1c24" fill-opacity="1"><g transform="translate(261.562738, 262.898157)"><g><path d="M 1.25 -1.546875 L 0.640625 -1.546875 L 0.640625 -2.015625 C 0.640625 -2.941406 0.617188 -3.753906 0.578125 -4.453125 C 0.535156 -5.160156 0.5 -5.773438 0.46875 -6.296875 L 1.421875 -6.296875 C 1.390625 -5.773438 1.351562 -5.160156 1.3125 -4.453125 C 1.269531 -3.753906 1.25 -2.941406 1.25 -2.015625 Z M 0.46875 -0.375 C 0.46875 -0.4375 0.476562 -0.492188 0.5 -0.546875 C 0.53125 -0.609375 0.566406 -0.660156 0.609375 -0.703125 C 0.648438 -0.753906 0.695312 -0.789062 0.75 -0.8125 C 0.8125 -0.84375 0.875 -0.859375 0.9375 -0.859375 C 1.007812 -0.859375 1.070312 -0.84375 1.125 -0.8125 C 1.1875 -0.789062 1.238281 -0.753906 1.28125 -0.703125 C 1.320312 -0.660156 1.351562 -0.609375 1.375 -0.546875 C 1.40625 -0.492188 1.421875 -0.4375 1.421875 -0.375 C 1.421875 -0.3125 1.40625 -0.25 1.375 -0.1875 C 1.351562 -0.125 1.320312 -0.0703125 1.28125 -0.03125 C 1.238281 0.0078125 1.1875 0.0390625 1.125 0.0625 C 1.070312 0.0820312 1.007812 0.09375 0.9375 0.09375 C 0.8125 0.09375 0.703125 0.0507812 0.609375 -0.03125 C 0.515625 -0.125 0.46875 -0.238281 0.46875 -0.375 Z M 0.46875 -0.375 "/></g></g></g></svg>